<svg xmlns="http://www.w3.org/2000/svg" xmlns:xlink="http://www.w3.org/1999/xlink" width="533px" height="437px" viewBox="0 0 533 437"><title>In-house_team_illustration</title><desc>Created with Sketch.</desc><defs><linearGradient x1="50%" y1="100%" x2="50%" y2="0%" id="linearGradient-1"><stop stop-color="#FFFFFF" offset="0%"></stop><stop stop-color="#EDF3FB" offset="100%"></stop></linearGradient><path d="M3.34120902,3.69074776 C2.29878588,2.60566617 1.23551427,1.49202981 0.151394206,0.349838668 C1.23551427,1.26359158 2.29878588,2.37722795 3.34120902,3.69074776" id="path-2"></path><path d="M1.77762937,4.5267841 C1.47993613,2.9146121 1.2247705,1.53697626 1.09313743,0.814351321 C1.0485847,0.565024588 0.880499405,0.425570654 0.61520815,0.374860132 L1.02023297,0.136098092 C1.04453446,0.328375487 1.35640356,2.14761546 1.77762937,4.5267841" id="path-4"></path></defs><g id="Welcome" stroke="none" stroke-width="1" fill="none" fill-rule="evenodd"><g id="80_HOURS_Complete" transform="translate(-998.000000, -2107.000000)"><g id="In-house_team_illustration" transform="translate(998.000000, 2107.000000)"><rect id="Rectangle" fill="url(#linearGradient-1)" x="0" y="0" width="533" height="436" rx="10"></rect><g id="noun_hire_3191175" transform="translate(434.000000, 66.000000)" fill="#35A7B1" fill-rule="nonzero"><path d="M11.2025037,31 C10.9904271,31 10.787187,31.0795873 10.6458027,31.2299189 L9.23195876,32.6448047 C8.92268041,32.954311 8.92268041,33.458364 9.23195876,33.7678703 C9.54123711,34.0773766 10.044919,34.0773766 10.3541973,33.7678703 L11.7680412,32.3529845 C12.0773196,32.0434783 12.0773196,31.5394252 11.7680412,31.2299189 C11.6178203,31.0884304 11.4145803,31 11.2025037,31 Z" id="Path"></path><path d="M11.250298,35.749702 C11.5840286,36.0834327 12.1275328,36.0834327 12.4612634,35.749702 C12.4612634,35.749702 12.4612634,35.749702 12.4612634,35.749702 L14.749702,33.4612634 C15.0834327,33.1275328 15.0834327,32.5840286 14.749702,32.250298 C14.4159714,31.9165673 13.8724672,31.9165673 13.5387366,32.250298 L13.5387366,32.250298 L12.7759237,33.0131108 L11.250298,34.5387366 C10.9165673,34.8820024 10.9165673,35.4159714 11.250298,35.749702 Z" id="Path"></path><path d="M13.7945205,39.34375 C12.5325342,39.34375 11.4965753,38.35 11.4494863,37.09375 C10.2157534,37.046875 9.23630137,36.071875 9.18921233,34.84375 C8.59589041,34.825 8.03082192,34.58125 7.61643836,34.159375 C7.56934932,34.1125 7.52226027,34.05625 7.47517123,34 L4,34 L4,39.25 C4,39.6625 4.3390411,40 4.75342466,40 L15,40 C14.802226,39.765625 14.6609589,39.503125 14.5667808,39.2125 C14.3219178,39.296875 14.0582192,39.34375 13.7945205,39.34375 Z" id="Path"></path><path d="M10.4073864,24 C10.4866477,24 10.5571023,23.9909091 10.6275568,23.9636364 L16.5369318,21.9272727 C16.7482955,21.8545455 16.9772727,21.8181818 17.20625,21.8181818 L25.4318182,21.8181818 L25.4318182,21.8181818 C26.215625,21.7727273 26.990625,21.8909091 27.7303977,22.1636364 L32.4860795,23.9454545 C32.5653409,23.9727273 32.6446023,23.9909091 32.7238636,23.9909091 L36,23.9909091 L36,0.727272727 C36,0.327272727 35.6829545,0 35.2954545,0 L5.70454545,0 C5.31704545,0 5,0.327272727 5,0.727272727 L5,24 L10.4073864,24 L10.4073864,24 Z M31.0681818,20.3636364 L27.5454545,20.3636364 L27.5454545,18.9090909 L31.0681818,18.9090909 L31.0681818,20.3636364 Z M33.8863636,17.4545455 L25.4318182,17.4545455 L25.4318182,16 L33.8863636,16 L33.8863636,17.4545455 Z M15.5681818,2.18181818 L25.4318182,2.18181818 L25.4318182,3.63636364 L15.5681818,3.63636364 L15.5681818,2.18181818 Z M7.11363636,5.81818182 L33.8863636,5.81818182 L33.8863636,7.27272727 L7.11363636,7.27272727 L7.11363636,5.81818182 Z M7.11363636,8.72727273 L33.8863636,8.72727273 L33.8863636,10.1818182 L7.11363636,10.1818182 L7.11363636,8.72727273 Z M7.11363636,11.6363636 L21.9090909,11.6363636 L21.9090909,13.0909091 L7.11363636,13.0909091 L7.11363636,11.6363636 Z M7.11363636,16 L15.5681818,16 L15.5681818,17.4545455 L7.11363636,17.4545455 L7.11363636,16 Z M9.22727273,18.9090909 L12.75,18.9090909 L12.75,20.3636364 L9.22727273,20.3636364 L9.22727273,18.9090909 Z" id="Shape"></path><path d="M32.258538,25.1941718 C32.0041238,25.1941718 31.7497095,25.1484035 31.5134677,25.0660205 L26.6069073,23.2719017 C25.0895081,22.7226816 23.3903844,23.015599 22.1455718,24.0591171 L17.4752532,27.9860404 C16.9119074,28.4528775 16.8392176,29.2950149 17.3117012,29.8625423 C17.7750986,30.4300697 18.6110311,30.503299 19.1743769,30.036462 L22.6089692,27.1530567 L23.0814528,27.6290474 C24.4716449,29.0387122 26.6977695,29.1577099 28.2333412,27.9128111 L28.6603937,27.5741254 L29.569016,28.7183338 L29.1419635,29.0570195 C28.1606514,29.8533886 26.9249251,30.2653036 25.6710263,30.228689 L29.4145502,34 L31.8587442,34 C32.2948829,34 32.7128492,33.8718487 33.0762981,33.6246996 L34.1575586,32.8924062 C34.5210075,32.6452572 34.9389738,32.5171059 35.3751125,32.5171059 L40,32.5171059 L40,25.1941718 L32.258538,25.1941718 Z" id="Path"></path><path d="M18.7680412,36.2319588 C18.4587629,35.9226804 17.955081,35.9226804 17.6458027,36.2319588 C17.6458027,36.2319588 17.6458027,36.2319588 17.6458027,36.2319588 L16.2319588,37.6458027 C15.9226804,37.955081 15.9226804,38.4587629 16.2319588,38.7680412 C16.5412371,39.0773196 17.044919,39.0773196 17.3541973,38.7680412 L17.3541973,38.7680412 L18.7680412,37.3541973 C19.0773196,37.0360825 19.0773196,36.5412371 18.7680412,36.2319588 Z" id="Path"></path><path d="M35.3306645,34.109214 L34.2826261,34.7748396 C33.7013611,35.1409336 33.0232186,35.3406213 32.3186549,35.3406213 L31.0328263,35.3406213 C31.4203363,36.4305831 30.8038431,37.6037481 29.6501201,37.9781624 C29.1833467,38.1279282 28.6901521,38.1196079 28.2233787,37.9698421 C27.8534828,39.0598039 26.6116894,39.6671872 25.4579664,39.3177338 C25.4403523,39.3094135 25.4227382,39.3094135 25.4051241,39.3010932 C25.3170536,39.5590231 25.184948,39.791992 25,40 L35.2954363,40 C35.6829464,40 36,39.7004685 36,39.3343745 L36,34.0010499 L35.7269816,34.0010499 C35.5860689,33.9927296 35.4451561,34.0343312 35.3306645,34.109214 Z" id="Path"></path><path d="M24.1236988,36.688961 L24.8288124,37.3807594 C25.1372996,37.6834212 25.639693,37.6834212 25.9481802,37.3807594 C26.2566674,37.0780976 26.2566674,36.5851912 25.9481802,36.2825294 L21.3649419,31.7858398 L22.3609148,30.8086745 L26.9441532,35.3053641 L27.6492668,35.9971625 C27.957754,36.2998243 28.4601474,36.2998243 28.7686346,35.9971625 C29.0771218,35.6945007 29.0771218,35.2015944 28.7686346,34.8989326 L22.5283793,28.7765167 L20.1750627,30.6962573 C19.038067,31.6301851 17.3369805,31.4831779 16.3850771,30.3590055 C15.4331738,29.2434806 15.5830104,27.574517 16.72882,26.6405891 C16.72882,26.6405891 16.72882,26.6405891 16.7376339,26.6405891 L21.1886635,23 L16.4555885,23 C16.3762632,23 16.3057518,23.0086475 16.2352405,23.0345899 L10.3122863,24.9716255 C10.1007522,25.0408053 9.8715903,25.0753952 9.64242839,25.0753952 L9.64242839,25.0753952 L0,25.0667477 L0,32.6765302 L6.96299673,32.6851777 C6.96299673,32.114444 7.19215865,31.5610053 7.60641289,31.1632212 L9.01664007,29.7796244 C9.8715903,28.9321713 11.2641897,28.9321713 12.1279538,29.7796244 C12.3747436,30.0217538 12.5598359,30.3244156 12.6656029,30.6530199 C13.8114125,30.2638833 15.0629891,30.8519119 15.4684295,31.9760843 C15.5389408,32.1749764 15.5830104,32.3911634 15.5918243,32.6073504 C16.7464478,32.6505878 17.6630955,33.5499257 17.7071651,34.6827456 C18.8089051,34.725983 19.7079249,35.5561411 19.813692,36.6284286 L20.5893169,37.3894068 L21.9995441,38.7730036 C22.3080313,39.0756655 22.8104247,39.0756655 23.1189119,38.7730036 C23.4273991,38.4703418 23.4273991,37.9774355 23.1189119,37.6747737 L19.9459008,34.5616809 L20.9418737,33.5845156 L24.1236988,36.688961 Z" id="Path"></path><path d="M19.7092199,39 C19.6695035,39.0507757 19.6297872,39.0959097 19.5843972,39.1410437 L19,39.7221439 L19.1304965,39.8519041 C19.329078,40.0493653 19.6524823,40.0493653 19.8510638,39.8519041 C20.0496454,39.6544429 20.0496454,39.3328632 19.8510638,39.135402 L19.7092199,39 Z" id="Path"></path><path d="M16.749702,34.250298 C16.4159714,33.9165673 15.8724672,33.9165673 15.5387366,34.250298 C15.5387366,34.250298 15.5387366,34.250298 15.5387366,34.250298 L13.250298,36.5387366 C12.9165673,36.8724672 12.9165673,37.4159714 13.250298,37.749702 C13.5840286,38.0834327 14.1275328,38.0834327 14.4612634,37.749702 L15.2240763,36.9868892 L16.749702,35.4612634 C17.0834327,35.1179976 17.0834327,34.5840286 16.749702,34.250298 Z" id="Path"></path></g><g id="noun_contact-list_3215045" transform="translate(297.000000, 105.000000)" fill="#F37D76" fill-rule="nonzero"><g id="Group"><path d="M23.4961241,0 L3.50387591,0 C1.89611182,0 0.589103182,1.33750625 0.589103182,2.96875 L0.589103182,37.03125 C0.589103182,38.66875 1.89611182,40 3.50387591,40 L23.4961241,40 C25.1038514,40 26.4108968,38.66875 26.4108968,37.03125 L26.4108968,2.96875 C26.4108968,1.33750625 25.1038452,0 23.4961241,0 Z M4.45454545,1.875 L22.5454545,1.875 C23.650024,1.875 24.5454545,2.7704305 24.5454545,3.875 L24.5454545,36.125 C24.5454545,37.2295695 23.650024,38.125 22.5454545,38.125 L4.45454545,38.125 C3.34997595,38.125 2.45454545,37.2295695 2.45454545,36.125 L2.45454545,3.875 C2.45454545,2.7704305 3.34997595,1.875 4.45454545,1.875 Z" id="Shape"></path><path d="M14.4857332,11.5426625 L14.4857332,12.30015 C14.4857332,12.6453438 14.7604889,12.92515 15.0993695,12.92515 L21.0642341,12.92515 C21.4031516,12.92515 21.6778705,12.6453438 21.6778705,12.30015 L21.6778705,11.5426625 C21.6778705,11.1974688 21.4031516,10.9176625 21.0642341,10.9176625 L15.0993695,10.9176625 C14.760495,10.9176625 14.4857332,11.1974688 14.4857332,11.5426625 Z" id="Path"></path><path d="M21.0642341,20.6089 L15.0993695,20.6089 C14.7604889,20.6089 14.4857332,20.8887437 14.4857332,21.2339 L14.4857332,21.991425 C14.4857332,22.3366187 14.7604889,22.616425 15.0993695,22.616425 L21.0642341,22.616425 C21.4031516,22.616425 21.6778705,22.3366187 21.6778705,21.991425 L21.6778705,21.2339 C21.6778705,20.88875 21.4031516,20.6089 21.0642341,20.6089 Z" id="Path"></path><path d="M9.12050182,9.426725 C8.26428273,9.426725 7.5701925,10.1336625 7.5701925,11.0057437 C7.5701925,11.8777812 8.26427659,12.584725 9.12050182,12.584725 C9.97668409,12.584725 10.6707743,11.8777875 10.6707743,11.0057437 C10.6707743,10.1336687 9.97668409,9.426725 9.12050182,9.426725 Z" id="Path"></path><path d="M9.12050182,19.1180063 C8.26428273,19.1180063 7.5701925,19.8249438 7.5701925,20.697025 C7.5701925,21.5690625 8.26427659,22.2760063 9.12050182,22.2760063 C9.97668409,22.2760063 10.6707743,21.5690688 10.6707743,20.697025 C10.6707743,19.8249438 9.97668409,19.1180063 9.12050182,19.1180063 Z" id="Path"></path><path d="M9.12207273,7.58514375 C6.77329364,7.58514375 4.86227659,9.53155625 4.86227659,11.923825 C4.86227659,14.2807375 6.69947932,16.1574875 8.95750773,16.2475937 C9.01263682,16.2501125 9.06642205,16.2577437 9.1221525,16.2577437 C9.18484773,16.2577437 9.24537682,16.2495437 9.30728659,16.2463375 C11.5624309,16.1446 13.3770825,14.2628875 13.3770825,11.923825 C13.3770825,9.53155625 11.4681518,7.58514375 9.12207273,7.58514375 Z M11.482517,14.0006375 C10.8330075,13.4796437 10.0164293,13.1646125 9.12229364,13.1646125 C8.22788182,13.1646125 7.40860364,13.4798 6.75743114,14.001075 C6.18377318,13.36105 5.91358295,12.5965125 5.91358295,11.8031937 C5.91358295,10.0011063 7.35288545,8.53515 9.12220773,8.53515 C10.8886766,8.53515 12.3257639,10.0011063 12.3257639,11.8031937 C12.3257639,12.6003125 12.0523705,13.3625125 11.482517,14.0006375 Z" id="Shape"></path><path d="M9.12207273,17.2763625 C6.77329364,17.2763625 4.86227659,19.222775 4.86227659,21.6150437 C4.86227659,23.9719562 6.69947932,25.8487062 8.95750773,25.9388125 C9.01263682,25.9413312 9.06642205,25.9489625 9.1221525,25.9489625 C9.18484773,25.9489625 9.24537682,25.9407625 9.30728659,25.9375562 C11.5624309,25.8358187 13.3770825,23.9541062 13.3770825,21.6150437 C13.3770825,19.222775 11.4681518,17.2763625 9.12207273,17.2763625 Z M11.482517,23.6918562 C10.8330075,23.1708625 10.0164293,22.8558312 9.12229364,22.8558312 C8.22788182,22.8558312 7.40860364,23.1710187 6.75743114,23.6922937 C6.18377318,23.0522687 5.91358295,22.2877312 5.91358295,21.4944125 C5.91358295,19.692325 7.35288545,18.2263687 9.12220773,18.2263687 C10.8886766,18.2263687 12.3257639,19.692325 12.3257639,21.4944125 C12.3257639,22.2915312 12.0523705,23.0537312 11.482517,23.6918562 Z" id="Shape"></path><path d="M9.12207273,26.9675812 C6.77329364,26.9675812 4.86227659,28.9139937 4.86227659,31.3062625 C4.86227659,33.663175 6.69947932,35.539925 8.95750773,35.6300312 C9.01263682,35.63255 9.06642205,35.6401812 9.1221525,35.6401812 C9.18484773,35.6401812 9.24537682,35.6319812 9.30728659,35.628775 C11.5624309,35.5270375 13.3770825,33.645325 13.3770825,31.3062625 C13.3770825,28.9139937 11.4681518,26.9675812 9.12207273,26.9675812 Z M11.482517,33.3830812 C10.8330075,32.8620875 10.0164293,32.5470562 9.12229364,32.5470562 C8.22788182,32.5470562 7.40860364,32.8622437 6.75743114,33.3835187 C6.18377318,32.7434937 5.91358295,31.9789562 5.91358295,31.1856375 C5.91358295,29.38355 7.35288545,27.9175937 9.12220773,27.9175937 C10.8886766,27.9175937 12.3257639,29.38355 12.3257639,31.1856375 C12.3257639,31.9827562 12.0523705,32.74495 11.482517,33.3830812 Z" id="Shape"></path><path d="M9.12050182,28.8092812 C8.26428273,28.8092812 7.5701925,29.5162187 7.5701925,30.3882625 C7.5701925,31.2603375 8.26427659,31.9672812 9.12050182,31.9672812 C9.97668409,31.9672812 10.6707743,31.2603437 10.6707743,30.3882625 C10.6707743,29.5162187 9.97668409,28.8092812 9.12050182,28.8092812 Z" id="Path"></path><path d="M21.0642341,30.3001812 L15.0993695,30.3001812 C14.7604889,30.3001812 14.4857332,30.5799875 14.4857332,30.9251812 L14.4857332,31.6827062 C14.4857332,32.0278625 14.7604889,32.3077062 15.0993695,32.3077062 L21.0642341,32.3077062 C21.4031516,32.3077062 21.6778705,32.0278625 21.6778705,31.6827062 L21.6778705,30.9251812 C21.6778705,30.5799875 21.4031516,30.3001812 21.0642341,30.3001812 Z" id="Path"></path></g></g><g id="noun_CV_3194906" transform="translate(85.000000, 211.000000)" fill="#7C98FD" fill-rule="nonzero"><polygon id="Path" points="24 7 31 7 24 0"></polygon><path d="M0.807875852,0 C0.36355399,0 0,0.36000976 0,0.8 L0,39.2 C0,39.6480469 0.36355399,40 0.807875852,40 L31.1921241,40 C31.636446,40 32,39.6480469 32,39.2 L32,9.12001952 L23.5980714,9.12001952 C23.1537496,9.12001952 22.7901956,8.7680176 22.7901956,8.32001952 L22.7901956,0 L0.807875852,0 Z M6.30950847,13.6320313 C6.30950847,11.8640137 7.75563783,10.4320313 9.54101188,10.4320313 L11.1002557,10.4320313 C9.67029964,10.1360352 8.59581095,8.88002936 8.59581095,7.37602544 C8.59581095,5.66401376 10.001507,4.26401376 11.7384598,4.26401376 C13.4753633,4.26401376 14.8891461,5.66401376 14.8891461,7.37602544 C14.8891461,8.88002936 13.80662,10.1360352 12.376664,10.4320313 L13.943945,10.4320313 C15.7293685,10.4320313 17.1754485,11.8640137 17.1754485,13.6320313 L17.1754485,15.5120118 C17.1754485,15.952002 16.8118945,16.3120118 16.3675726,16.3120118 L7.11738432,16.3120118 C6.67306246,16.3120118 6.30950847,15.952002 6.30950847,15.5120118 L6.30950847,13.6320313 Z M26.4983675,34.144043 L5.50163262,34.144043 C5.05731075,34.144043 4.69375676,33.7840332 4.69375676,33.344043 C4.69375676,32.8960449 5.05731075,32.544043 5.50163262,32.544043 L26.4983675,32.544043 C26.9426893,32.544043 27.3062433,32.8960449 27.3062433,33.344043 C27.3062433,33.7840332 26.9426892,34.144043 26.4983675,34.144043 Z M26.4983675,27.9040039 L5.50163262,27.9040039 C5.05731075,27.9040039 4.69375676,27.544043 4.69375676,27.1040039 C4.69375676,26.6640137 5.05731075,26.3040039 5.50163262,26.3040039 L26.4983675,26.3040039 C26.9426893,26.3040039 27.3062433,26.6640137 27.3062433,27.1040039 C27.3062433,27.544043 26.9426892,27.9040039 26.4983675,27.9040039 Z M26.4983675,20.0720215 C26.9426893,20.0720215 27.3062433,20.4240234 27.3062433,20.8720215 C27.3062433,21.3120118 26.9426893,21.6720215 26.4983675,21.6720215 L5.50163262,21.6720215 C5.05731075,21.6720215 4.69375676,21.3120118 4.69375676,20.8720215 C4.69375676,20.4240234 5.05731075,20.0720215 5.50163262,20.0720215 L26.4983675,20.0720215 L26.4983675,20.0720215 Z" id="Shape"></path></g><ellipse id="Oval" fill="#EEF3FB" cx="196.5" cy="399" rx="102.5" ry="38"></ellipse><ellipse id="Oval-Copy-7" fill="#EEF3FB" cx="312.5" cy="383" rx="97.5" ry="38"></ellipse><ellipse id="Oval-Copy-8" fill="#EEF3FB" cx="404" cy="342.5" rx="63" ry="32.5"></ellipse><g id="Group-76" transform="translate(61.000000, 44.000000)"><polygon id="Fill-6" fill="#FFFFFE" points="0 154 119 154 119 0 0 0"></polygon><polygon id="Fill-7" fill="#408CBF" points="4 149 115 149 115 4 4 4"></polygon><polygon id="Fill-8" fill="#3172A0" points="18.5473261 64.484139 18.5473261 84.8496259 30.9111923 84.8496259 30.9111923 103.106575 37.8601557 103.106575 37.8601557 34 68.9781864 34 68.9781864 69.0482144 80.3076797 69.0482144 80.3076797 54.601783 106.17413 73.5469037 106.17413 96.4928734 115 96.4928734 115 149 4 149 4 64.484139"></polygon><polyline id="Fill-15" fill="#71AFD3" points="18.6074074 73 18.6074074 64.8671745 4 64.8671745 4 63.9796676 25.7965738 50 38 50 38 60.5621607 18.6074074 73"></polyline><path d="M4,82.8429288 L4,65 L18.471767,65 L18.471767,73.2914083 L4,82.8429288 M38,60.7681134 L38,50 L54.3157148,50 L38,60.7681134" id="Fill-16" fill="#689BB8"></path><path d="M37.998703,49 L27,49 L37.998703,41.7818896 L37.998703,49 M59,34.4467288 L49.1761948,34.4467288 L59,28 L59,34.4467288" id="Fill-17" fill="#71AFD3"></path><polyline id="Fill-18" fill="#689BB8" points="55.1320158 49 38 49 38 41.5603217 49.1768015 34 59 34 59 46.383422 55.1320158 49"></polyline><polygon id="Fill-19" fill="#71AFD3" points="69.124674 34.2065729 60 34.2065729 60 27.2004163 95.5287124 4 115 4 115 9.63607176 69.124674 40"></polygon><polyline id="Fill-20" fill="#689BB8" points="60 46 60 34 69 34 69 39.8752275 60 46"></polyline><polyline id="Fill-21" fill="#71AFD3" points="5 47 5 38.0198731 56.4254412 4 70 4 60.012921 10.6067524 60.012921 4 59.3742385 4 59.3742385 11.0291872 5 47"></polyline><polygon id="Fill-24" fill="#FFFFFE" points="59 149 60 149 60 3 59 3"></polygon><polygon id="Fill-25" fill="#FFFFFE" points="4 50 115 50 115 49 4 49"></polygon></g><g id="Group-77" transform="translate(240.000000, 44.000000)"><path d="M22.9996037,49 C10.2978687,49 0,38.4782646 0,25.4995951 C0,12.5209256 10.2978687,2 22.9996037,2 C35.7029239,2 46,12.5209256 46,25.4995951 C46,38.4782646 35.7029239,49 22.9996037,49" id="Fill-209" fill="#C5D8EF"></path><path d="M48,23.5004049 C48,36.4790744 37.7029239,47 25.0003963,47 C12.2978687,47 2,36.4790744 2,23.5004049 C2,10.5217354 12.2978687,0 25.0003963,0 C37.7029239,0 48,10.5217354 48,23.5004049" id="Fill-210" fill="#42405D"></path><path d="M44,23.5 C44,34.2694692 35.26929,43 24.4995997,43 C13.7299095,43 5,34.2694692 5,23.5 C5,12.7305308 13.7299095,4 24.4995997,4 C35.26929,4 44,12.7305308 44,23.5" id="Fill-211" fill="#FFFFFE"></path><path d="M44,23.5 C44,34.2694692 35.26929,43 24.4995997,43 C13.7299095,43 5,34.2694692 5,23.5 C5,12.7305308 13.7299095,4 24.4995997,4 C35.26929,4 44,12.7305308 44,23.5" id="Fill-212" fill="#FFFFFE"></path><path d="M22.3836604,8.34775667 C33.1589908,8.34775667 41.8934722,17.0544468 41.8934722,27.7945074 C41.8934722,29.9651924 41.5314377,32.0504551 40.8730477,34 C42.8482179,30.9599234 44,27.3378573 44,23.4467508 C44,12.7066901 35.2647177,4 24.4893873,4 C15.8926712,4 8.59911894,9.54526585 6,17.2404598 C9.47537044,11.8907872 15.5122147,8.34775667 22.3836604,8.34775667" id="Fill-213" fill="#DEDED8"></path><path d="M27,23.0003803 C27,24.1047728 26.1046025,25 25,25 C23.8953975,25 23,24.1047728 23,23.0003803 C23,21.8959878 23.8953975,21 25,21 C26.1046025,21 27,21.8959878 27,23.0003803" id="Fill-214" fill="#42405D"></path><polygon id="Fill-215" fill="#42405D" points="24 7 25 7 25 4 24 4"></polygon><polygon id="Fill-216" fill="#42405D" points="24 44 25 44 25 41 24 41"></polygon><polyline id="Fill-217" fill="#42405D" points="11 10.4574571 12.5425429 12 13 11.5425429 11.4581042 10"></polyline><polyline id="Fill-218" fill="#42405D" points="37 36.4574571 38.5425429 38 39 37.5425429 37.4581042 36"></polyline><polyline id="Fill-219" fill="#42405D" points="38.5425429 10 37 11.5425429 37.4581042 12 39 10.4574571"></polyline><polyline id="Fill-220" fill="#42405D" points="12.5425429 36 11 37.5425429 11.4581042 38 13 36.4574571"></polyline><polygon id="Fill-221" fill="#42405D" points="42 24 45 24 45 23 42 23"></polygon><polygon id="Fill-222" fill="#42405D" points="5 24 8 24 8 23 5 23"></polygon><polyline id="Fill-223" fill="#42405D" points="19.5818315 30 25.5863004 23.8370758 30 10.2407825 29.2320147 10 24.8755311 23.4212506 19 29.4519029 19.5818315 30"></polyline></g><path d="M220.345181,391.619957 C224.277344,391.689398 227.617163,394.222554 225.161136,396.671802 C222.705109,399.123943 218.182176,401.089995 212.677777,401.408267 C207.173378,401.726539 199.401999,402.261815 196.208691,401.850955 C194.196923,398.517779 194,391.608384 194,391.608384 L204.224255,389 C204.224255,389 216.413017,391.550516 220.345181,391.619957 Z" id="Fill-10" fill="#37365B"></path><path d="M260.477316,384.620249 C256.668143,384.691144 253.434313,387.223135 255.811994,389.674102 C258.191202,392.123622 262.572667,394.091341 267.904899,394.408202 C273.237132,394.726509 280.766965,395.261844 283.858866,394.850938 C285.809236,391.518838 286,384.608674 286,384.608674 L276.094012,382 C276.094012,382 264.28649,384.5508 260.477316,384.620249 Z" id="Fill-11" fill="#37365B"></path><path d="M182.229996,376.85463 C188.445791,375.12562 194.838154,376.318988 195.902246,377.7962 C196.9679,379.274938 189.03487,384.979296 186.008225,385.498152 C182.983141,386.017007 181.21278,390.00609 177.140794,390 C173.070369,389.993882 171,386.822759 171,386.822759 L171.754708,378.739296 C172.873489,377.718372 176.017325,378.583639 182.229996,376.85463 Z" id="Fill-12" fill="#37365B"></path><path d="M169,402.863385 C168.618062,403.305532 168.614328,403.558591 167.916145,403.753886 C166.927689,404.058545 165.731458,404.094479 164.643698,403.796069 L151.263638,400.179216 C149.037702,399.583958 146.463438,400.355762 145.982196,401.768132 L143.099326,410.217352 C142.74336,411.271942 141.174358,412 139.396053,412 C139.197445,412 138.99731,411.992188 138.797174,411.976565 C137.626915,411.864075 137.046511,410.943571 136.488881,410.376435 C136.22458,410.112397 136.048888,409.806176 135.990833,409.482768 L135.990833,409.432773 C135.967917,409.287473 135.975556,409.143737 136,409 L136.722486,403.516408 L137.211367,400.901024 C137.477196,399.465219 135.425423,398.257518 133.00088,398.412191 L118.23362,399.371478 C118.093066,399.37929 117.960152,399.388664 117.819599,399.388664 C117.196276,399.388664 116.598924,399.296485 116.067266,399.134 C115.020755,398.810592 114.247712,398.216897 114.049104,397.485714 C113.725221,396.304573 115.036033,395.184364 117.022112,394.945324 L131.480765,393.231419 C132.111727,393.154864 132.676996,392.992379 133.133794,392.772087 C134.404885,392.151831 134.910571,391.073806 134.1635,390.114519 L129.039416,383.497942 L128.009711,382.165253 C127.818742,381.916838 127.710271,381.662174 127.678188,381.416884 L127.661383,381.229402 C127.661383,380.415414 128.416093,379.634236 129.720794,379.243647 C131.531181,378.698385 133.747951,379.098348 134.753212,380.143564 L142.078787,387.744426 C143.282657,388.992748 146.148721,389.27241 147.940775,388.303749 L158.806154,382.437103 C159.527254,382.046514 160.44085,381.851219 161.354446,381.851219 C162.326097,381.851219 163.306914,382.069949 164.053986,382.512096 C164.842306,382.97924 165.216606,383.599496 165.167717,384.210377 C165.132579,384.713455 164.802585,385.213409 164.1869,385.613372 L163.32372,386.164884 L154.253451,392.025281 C152.634032,393.068934 153.066387,394.734406 155.118159,395.456214 L155.200657,395.490586 L168.064337,399.813624 C169.303345,400.229211 170,400.993203 170,401.774381 C170,402.114975 169.273468,402.54154 169,402.863385 Z" id="Fill-13" fill="#8CA7EB"></path><path d="M128.030348,386.427311 C127.806785,386.135759 127.66907,385.844207 127.642242,385.541923 L127.642242,381.002297 C127.679801,381.283117 127.806785,381.574669 128.030348,381.859067 L128.593562,382.382499 L134.592221,389.957485 C135.466802,391.055724 134.874806,392.289901 133.386766,393 L128.030348,386.427311 Z" id="Fill-14" fill="#8CA7EB"></path><polygon id="Fill-15" fill="#37365B" points="158.485 393.027 158.515 392.765 158.515 393.235"></polygon><path d="M136.726397,403.936775 C136.000459,403.079003 134.365681,402.589119 132.800139,402.708808 L118.151034,403.82228 C118.011606,403.833161 117.879755,403.842228 117.740326,403.842228 C115.903505,403.842228 114.295528,402.915544 114,401.63342 L114,397 C114.197019,397.848705 114.963877,398.537824 116.002014,398.913212 C116.529418,399.101813 117.12199,399.208808 117.740326,399.208808 C117.879755,399.208808 118.011606,399.197927 118.151034,399.18886 L132.800139,398.075389 C135.205284,397.895855 137.475069,399.234444 137.211367,400.901024 L136.726397,403.936775 Z" id="Fill-16" fill="#8CA7EB"></path><path d="M145.03225,408.451 C144.94625,408.149 144.94625,407.845 145.03225,407.549 L145.03225,408.451 Z" id="Fill-17" fill="#37365B"></path><path d="M170,404.810075 C169.99245,405.140947 169.861083,405.471819 169.598348,405.785523 C168.695386,406.854615 166.536128,407.304102 164.706044,406.803111 L151.481725,403.19005 C149.281698,402.595417 146.737398,403.367972 146.261758,404.775739 L143.412444,413.217661 C143.060621,414.269584 141.524981,415 139.776436,415 C139.57259,415 139.367234,414.981271 139.160368,414.965664 C137.420882,414.80491 136.140427,413.95588 136,412.938292 C136,412.938292 136,412.785342 136,412.538748 L136,409.000602 C136.057379,409.32367 136.231025,409.629571 136.49225,409.893332 C137.043389,410.459873 138.003731,410.875023 139.160368,410.987395 C139.358174,411.003002 139.55598,411.010806 139.752276,411.010806 C141.509881,411.010806 143.060621,410.283511 143.412444,409.230027 L146.261758,400.789666 C146.737398,399.378778 149.281698,398.607783 151.481725,399.202417 L164.706044,402.815478 C165.781143,403.113575 166.96345,403.077678 167.940401,402.773338 C168.630457,402.578249 169.220855,402.247377 169.598348,401.805693 C169.868633,401.484186 170,401.622077 170,401.281841 L170,404.810075 Z" id="Fill-18" fill="#8CA7EB"></path><path d="M165.142254,387.780772 C165.150598,388.312587 164.654419,388.852042 163.928502,389.275354 L154.022647,395 C151.781481,394.293971 151.309217,392.664907 153.07812,391.644068 L162.985643,385.911781 L163.928502,385.372326 C164.601018,384.981106 165.103872,384.492081 165.142254,384 L165.142254,387.780772 Z" id="Fill-19" fill="#8CA7EB"></path><path d="M166.267711,411.991865 C164.339898,411.861268 162.879818,410.192181 163.007812,408.263493 C163.135806,406.334805 164.80447,404.877539 166.732282,405.008135 C168.661674,405.138732 170.120175,406.807819 169.992181,408.736507 C169.864186,410.665195 168.195523,412.122461 166.267711,411.991865 Z" id="Fill-20" fill="#667FBF"></path><path d="M139.268556,419.991865 C137.339597,419.861268 135.879845,418.192181 136.00781,416.263493 C136.137355,414.334805 137.804064,412.877539 139.733023,413.008135 C141.660402,413.138732 143.120155,414.807819 142.99219,416.736507 C142.862645,418.665195 141.195936,420.122461 139.268556,419.991865 Z" id="Fill-21" fill="#667FBF"></path><path d="M296.319893,368.914459 C289.859111,367.063638 283.209835,368.342208 282.101622,369.924889 C280.99341,371.50757 289.246507,377.622474 292.390776,378.176739 C295.538295,378.732639 297.377733,383.004897 301.61234,383 C305.846948,382.993452 308,379.59592 308,379.59592 L307.213526,370.93532 C306.050066,369.841504 302.782301,370.766915 296.319893,368.914459 Z" id="Fill-9" fill="#37365B"></path><path d="M129.267707,391.991867 C127.339897,391.8613 125.879818,390.19259 126.007812,388.264339 C126.135806,386.336087 127.804468,384.877558 129.733858,385.008125 C131.663248,385.138692 133.120167,386.807402 132.992173,388.735654 C132.864179,390.665497 131.197097,392.122434 129.267707,391.991867 Z" id="Fill-23" fill="#667FBF"></path><path d="M162.867263,394.993027 C161.765656,394.881087 160.931324,393.450441 161.004464,391.79728 C161.077603,390.144119 162.031125,388.895033 163.133635,389.006973 C164.235242,389.118913 165.068671,390.549559 164.995532,392.20272 C164.922392,393.855881 163.96887,395.104967 162.867263,394.993027 Z" id="Fill-24" fill="#667FBF"></path><path d="M139,395.990157 L139,365 L148,365 L148,395.990157 C148,400.424077 139,399.559256 139,395.990157 Z" id="Fill-25" fill="#7E96D4"></path><path d="M143.864907,386.73004 C143.195349,387.073313 142.364173,387.107783 141.719243,386.725732 L141.70539,386.71855 L141.68538,386.708496 C138.640815,384.901649 137.133925,378.497253 142.993712,374.435438 C144.71917,373.234703 175.803592,353.728512 180.752164,355.065693 L180.921478,355.124581 C181.076938,355.193523 181.235477,355.281136 181.370928,355.397475 C183.75517,357.234484 183.451945,364.516451 180.921478,366.742693 C178.492599,368.875577 149.309106,383.929284 143.864907,386.73004 Z" id="Fill-28" fill="#637CC1"></path><path d="M144.258499,374.171676 C138.401343,378.417258 139.907556,385.111406 142.950754,387 L108.440151,367.488036 L107.246257,366.815469 L107.215487,366.794451 C104.506148,364.539549 103.439952,358.325806 108.992481,354.303912 C110.740242,353.038344 142.532276,332.179744 146.904758,334.128389 L147.197077,334.292027 L182,353.925593 C177.053649,352.527913 145.983183,372.916617 144.258499,374.171676 Z" id="Fill-29" fill="#5067A7"></path><path d="M245.197163,158.155106 C245.197163,158.155106 240.840694,153.531762 238.870128,155.478353 L207,173.865689 L208.48702,193.687594 L222.329493,239 L253.217369,221.177706 C255.162167,220.638417 256.376339,218.031348 255.894308,214.210878 C254.981784,206.957742 251.578767,163.157164 245.197163,158.155106 Z" id="Fill-30" fill="#5067A7"></path><path d="M174.735605,332.135183 C186.340052,333.470383 183.75427,381.555261 183.75427,381.555261 C183.75427,381.555261 177.59552,382.555924 171.499912,381.555261 C168.892569,368.197368 164.706652,353.504275 164.706652,353.504275 C164.706652,353.504275 139.446381,360.494179 135.676283,356.999964 C131.904646,353.504275 135.676283,339.814793 135.676283,339.814793 C135.676283,339.814793 163.129618,330.79851 174.735605,332.135183 Z" id="Fill-26" fill="#587BF1"></path><path d="M223.894969,232.957628 C224.805036,240.179055 219.631388,243.058275 214.937676,235.726747 C210.240945,228.396727 206.00302,186.810176 206,178.130287 C205.996983,169.450397 213.244317,177.146918 213.244317,177.146918 C219.598185,182.127108 222.984902,225.736201 223.894969,232.957628 Z" id="Fill-31" fill="#637CC1"></path><path d="M233.717872,171.734961 C226.891434,180.368275 231.115312,189.731251 233.423499,198.977663 C235.730177,208.22256 232.161469,231.387032 232.153921,233.610833 C242.636624,240.66372 267.97385,241.685548 270.873803,231.265926 C272.11168,219.916819 263.83753,207.948559 263.733367,201.305917 C264.151528,187.038165 276.229885,157.300688 264.497228,153.01355 C255.617726,152.570001 240.542801,163.10316 233.717872,171.734961 Z" id="Fill-32" fill="#FCFCFC"></path><path d="M259.176366,205.268861 C258.076543,213.753156 257.869213,242 257.869213,242 C265.213244,238.547842 268.723283,232.169183 268.896598,229.262261 C269.066674,226.355339 266.22236,201.866407 266.426451,199.869216 C266.632161,197.87052 270.367348,178.954442 269.970504,168.716957 C269.575281,158.480978 265.433533,156.919073 265.433533,156.919073 L256,153 L256.877915,155.110154 C261.827928,175.140802 260.27295,196.78306 259.176366,205.268861 Z" id="Fill-33" fill="#35A7B1"></path><path d="M257.895,158.853659 C257.795,159.829268 257.735,160.878049 257.695,162 L257.645,161.414634 L257.105,158 L257.895,158.853659 Z" id="Fill-34" fill="#F7CD5D"></path><path d="M247.002885,196.11911 C246.719639,208.167705 240.812943,242 240.812943,242 C229.467338,239.011682 228.112617,230.966677 225.919601,226.860199 C220.683828,198.691333 227.292918,175.800063 232.215403,167.345016 C236.073567,160.714733 243.928657,156 243.928657,156 C250.404707,170.645026 247.284701,184.072029 247.002885,196.11911 Z" id="Fill-35" fill="#35A7B1"></path><path d="M236.340519,209.233818 C239.088135,214.373447 241.268999,217.351356 244.578833,219 C245.656419,212.084567 246.62821,205.027188 247,200.026548 C244.199487,190.813363 242.033737,178.910597 236.391905,176.200315 C225.297158,173.487076 230.901207,199.058062 236.340519,209.233818 Z" id="Fill-36" fill="#2A99A3"></path><polygon id="Fill-37" fill="#37365B" points="197.000725 267 199 267 198.149801 268.116492 191.738484 272 191 270.6987"></polygon><g id="Group-73" transform="translate(346.000000, 55.000000)"><path d="M0.272110372,81.7387308 C2.73146751,89.6924843 9.42754585,85.3230624 14.0309992,78.332673 C20.3732132,68.6938894 26.7202526,47.7450055 25.9337087,42.5013564 C25.1455563,37.2594215 20.4750861,36 20.4750861,36 C12.6257317,40.1740064 -2.18724677,73.7866915 0.272110372,81.7387308 Z" id="Fill-40" fill="#22407A"></path><path d="M18.1312168,146.687844 C18.7283656,157.359149 21.3388066,210.341565 21.3388066,210.341565 C28.2510541,211.823044 32.6462694,210.341565 32.6462694,210.341565 C34.9197717,169.716447 34.8530512,158.034211 35.5069124,151.975278 C36.1591057,145.918007 36.9647561,128.404629 36.9647561,128.404629 C41.8370233,118.351853 36.7395743,105.269611 34.335967,102.118766 C31.9306917,98.9695837 19.1687211,103.468891 19.1687211,103.468891 C19.1687211,103.468891 17.534068,136.016538 18.1312168,146.687844 Z" id="Fill-42" fill="#2B478B"></path><path d="M34.3312826,140.613364 C36.9784464,149.213665 39.359442,174.427791 40.4870273,178.826463 C41.6146126,183.225134 42.9922347,210.390844 42.9922347,210.390844 C49.0818406,211.761445 53.8373792,210.390844 53.8373792,210.390844 C53.7083279,184.949251 54.3939127,164.271437 53.8373792,157.292385 C53.2792325,150.313333 54.0583795,129.635519 54.0583795,129.635519 C56.5716526,120.009441 56.7216746,118.779377 54.0583795,112.385656 C51.3950843,105.990486 39.9433989,100.9239 30,106.202016 C30,106.202016 31.6808925,132.014511 34.3312826,140.613364 Z" id="Fill-44" fill="#2B478B"></path><path d="M60.64192,47.3704459 C67.4586506,56.3348944 57.5654003,72.1782127 55.1934395,81.7260163 C52.8247482,91.27382 56.2886936,115.245332 56.2821548,117.545033 C45.7055967,124.779648 20.2270441,125.695144 17.3679405,114.906447 C16.1860469,103.163474 18.7934055,89.2219611 18.9339903,82.3548934 C18.5907017,67.5990435 12.3820823,38.3925094 24.2010182,34.0240899 C33.1297911,33.6160785 53.8284587,38.4043113 60.64192,47.3704459 Z" id="Fill-45" fill="#FCFCFC"></path><g id="Group-65" transform="translate(28.000000, 0.000000)"><g id="Group-873" transform="translate(14.545288, 3.630846) rotate(9.000000) translate(-14.545288, -3.630846) translate(12.545288, 1.630846)"><mask id="mask-3" fill="white"><use xlink:href="#path-2"></use></mask><g id="Clip-872"></g><path d="M3.34120902,3.69074776 C2.29878588,2.60566617 1.23551427,1.49202981 0.151394206,0.349838668 C1.23551427,1.26359158 2.29878588,2.37722795 3.34120902,3.69074776" id="Fill-871" mask="url(#mask-3)"></path></g><path d="M4.2155066,41.1626981 C4.52020178,45.3932251 6.85883616,52.091195 8.4751224,51.8997812 C10.0876193,51.7167203 16.422414,44.6720674 16.1041532,39.2797215 C15.8936397,33.8425442 15.8835883,30.8233401 15.4159227,28.2262812 C14.9502956,25.6501729 3.20694388,27.7083671 3.20694388,27.7083671 C4.207892,30.95978 3.91081143,36.9321711 4.2155066,41.1626981 Z" id="Fill-883" fill="#F9B589" transform="translate(9.661338, 39.416756) rotate(9.000000) translate(-9.661338, -39.416756) "></path><g id="Group-890" transform="translate(19.705503, 22.685639) rotate(9.000000) translate(-19.705503, -22.685639) translate(18.205503, 20.185639)"><mask id="mask-5" fill="white"><use xlink:href="#path-4"></use></mask><g id="Clip-889"></g><path d="M1.77762937,4.5267841 C1.47993613,2.9146121 1.2247705,1.53697626 1.09313743,0.814351321 C1.0485847,0.565024588 0.880499405,0.425570654 0.61520815,0.374860132 L1.02023297,0.136098092 C1.04453446,0.328375487 1.35640356,2.14761546 1.77762937,4.5267841" id="Fill-888" mask="url(#mask-5)"></path></g><path d="M2.99198698,10.5748575 C3.83540613,7.56394947 9.32904718,4.63844258 10.6642397,4.56075107 C18.901979,4.06169983 19.5911639,10.2859834 19.9922591,16.7161817 C21.7999631,15.2735382 22.6978925,17.4150536 22.685928,19.9813996 C22.6827528,21.9420476 21.8841218,24.5011937 19.1875132,25.3807003 C18.8373177,30.954533 15.4090372,35.4801148 11.9082504,35.949497 C10.8937047,36.0855263 9.97627554,35.9594314 9.12157958,35.4427859 C7.82908738,34.8700295 6.87709818,33.5779579 6.08192503,31.9186573 C5.31280569,30.4435914 4.06014685,26.2258593 3.9674837,25.9470487 C2.7684073,21.7317752 1.73868185,15.2850019 2.99198698,10.5748575 Z" id="Fill-910" fill="#FFC098" transform="translate(12.553397, 20.266507) rotate(9.000000) translate(-12.553397, -20.266507) "></path><path d="M14.5166496,3.44228545 C12.4993048,3.43032717 13.5934137,9.14747057 13.9816328,9.31589959 C15.0252163,8.55332912 15.9546866,8.88628069 16.2371563,9.00621345 C16.8055291,9.21261551 18.0085138,10.7597202 18.2368173,11.954875 C18.3763138,12.6851307 19.5784527,13.2595771 20.0308233,14.0207502 C20.7513472,15.2331265 20.4947257,17.4539734 20.5005093,18.4637257 L21.8224682,17.095725 C22.1187912,15.1422224 22.1349469,13.4357977 21.8709355,11.9764509 C21.4749183,9.78743073 21.0036789,9.44717421 20.2714316,7.97799397 C19.5391844,6.50881372 16.5339943,3.45428131 14.5166496,3.44228545 Z" id="Fill-911" fill="#131730" transform="translate(17.696530, 10.953006) rotate(9.000000) translate(-17.696530, -10.953006) "></path><path d="M4.12531958,6.78850757 C5.28118791,4.12849919 7.58413327,2.68317784 9.17865998,2.05720194 C10.0810048,1.70296132 15.0895603,0.822814198 17.72715,2.53742936 C19.5264018,3.91211565 21.7406204,6.0340347 22.1633906,8.58715767 C22.4483634,10.3081182 20.495205,10.1558273 19.8509102,8.86472707 C19.5121972,8.18598135 18.8521164,7.26501294 17.2469872,6.82213177 C15.641858,6.37925061 15.0256981,8.68378812 12.2752594,8.81975008 C9.52482064,8.95571203 7.79401204,7.38821599 6.60014377,8.78605665 C5.9197643,9.62773069 6.0068238,10.747049 5.80769125,11.5409898 C5.60855869,12.3349306 5.311926,13.2053111 4.9402735,13.6973503 C4.701987,14.0128232 4.48646136,16.4480638 4.48646136,16.4480638 C3.30790917,15.3796927 2.96945125,9.44851594 4.12531958,6.78850757 Z" id="Fill-916" fill="#131730" transform="translate(12.801345, 8.981315) rotate(9.000000) translate(-12.801345, -8.981315) "></path><path d="M5.67150704,33.0737117 C5.55227964,32.9333689 5.9133401,32.7290156 6.32136399,33.0328355 C6.72938788,33.3366555 7.3265689,33.9216827 7.77178838,34.1025343 C8.66706696,34.3283445 8.68663377,32.4553847 9.5186096,32.4603242 C10.3505854,32.4652637 10.7192019,33.0605045 11.2561222,33.5934566 C11.7930424,34.1264087 12.6298391,33.7759512 13.1030484,33.2174453 C13.5762576,32.6589394 15.0129681,31.264119 15.7597534,31.456858 C15.2720524,32.4944826 13.9985258,34.1092455 13.112262,34.8260482 C12.2259982,35.542851 10.9443452,35.7938326 10.1614099,35.8870041 C9.37847465,35.9801756 7.05841516,35.6515018 5.67150704,33.0737117 Z" id="Path-7" fill="#131730" transform="translate(10.704078, 33.669655) rotate(9.000000) translate(-10.704078, -33.669655) "></path></g><path d="M25.16481,88.7990708 C25.8007324,97.5873521 26.0666297,126 26.0666297,126 C18.4597345,122.38909 15.1220722,115.76769 15.1220722,112.7572 C15.1220722,109.746711 17.9874414,84.0326021 17.8944703,81.9663497 C17.8014992,79.896743 13.0885662,57.0954317 14.1577339,46.5008566 C15.2250421,35.9079587 21.5960822,35 21.5960822,35 L33,35 L32.502257,38.4191288 C27.9771602,45.1974866 24.5288877,80.0107894 25.16481,88.7990708 Z" id="Fill-46" fill="#274887"></path><path d="M35.0113491,80.3890177 C35.263312,92.5583901 37.9351689,128 37.9351689,128 C50.8377706,125.047355 59.6284772,121.620708 62.1411075,117.486347 C56.6154205,103.781402 54.6049663,94.56632 55.7370498,90.667315 C56.8656337,86.76831 66.6151993,57.044363 61.5514443,48.2193462 C56.741402,43.2916885 46.090719,40 46.090719,40 C38.6543131,54.751702 34.7611359,68.2196454 35.0113491,80.3890177 Z" id="Fill-51" fill="#274887"></path><path d="M46,38.9788623 C46,38.9788623 42.9724997,45.6506916 41.8823368,48.5966297 C40.7905322,51.5409117 37.9206458,54 37.9206458,54 L34,49.682934 C39.4048433,46.7966102 44.4452045,37 44.4452045,37 C44.4911753,37.2550166 46,38.9788623 46,38.9788623 Z" id="Fill-52" fill="#FCFCFC"></path><path d="M34,50.1111044 C31.6217635,52.3909462 30.0232769,53 30.0232769,53 C30.0232769,53 29.7042715,44.0765678 31.4281751,40.0159774 C31.768145,39.5853406 32.7658629,47.9848353 34,50.1111044 Z" id="Fill-53" fill="#FCFCFC"></path><path d="M28.92874,69.9877937 C28.2190439,69.5636286 27.4628385,69.2091026 26.6721819,68.9384599 C26.3052759,68.8118435 25.9521504,68.6931406 25.5611285,68.6804789 C25.2648476,68.6694 24.6585053,68.5142948 24.4242367,68.7152985 C24.2709285,68.846663 24.3105475,69.077738 24.3932305,69.2534183 C24.7170724,69.932399 25.4853357,70.3185792 26.1778062,70.6936804 C27.3680976,71.341007 27.8228543,72.2684724 28.222489,73.3415468 C27.0735392,72.265307 26.0244981,71.0814433 24.6309443,70.2521055 C23.266674,69.4401776 21.7456505,68.8846479 20.2194593,68.3702686 C19.5545499,68.1455245 18.851744,67.9239457 18.1523832,68.0252388 C17.3479461,68.142359 17.005156,68.7406217 17.5477635,69.3436326 C18.0214684,69.8675081 18.8345184,70.0637636 19.4615314,70.3977145 C20.303865,70.8456201 21.092799,71.3758265 21.8128305,71.9772546 C22.1452853,72.2542281 22.5156364,72.5454459 22.7722983,72.8857276 C22.9600578,73.1310469 23.1891587,73.6549225 23.5026652,73.7799562 C22.639661,73.4380918 21.7973274,73.0550771 20.9773873,72.6324947 C20.2590783,72.2621416 19.5097632,72.0832959 18.7707835,71.749345 C18.1265448,71.4581272 17.5374281,71.0213004 16.8983571,70.7095074 C16.5572895,70.5433234 16.1387066,70.3834701 15.797639,70.5528196 C15.5461448,70.6778533 15.4186751,70.9564095 15.4290105,71.2191386 C15.4376233,71.4818678 15.5616478,71.7303525 15.7097883,71.9550967 C16.0835846,72.5201226 16.6244695,72.9775245 17.2549277,73.2924829 C17.8199285,73.5757872 18.2609047,73.9382268 18.7914543,74.2769258 C19.4563637,74.7026736 20.1126604,75.1363349 20.7431186,75.6063984 C21.0549026,75.8422216 21.3615189,76.0859582 21.6560772,76.3407738 C21.8955136,76.5481082 22.1745688,76.9501154 22.4553467,77.0909762 C21.1444759,76.4404843 19.8628887,75.7393457 18.6140302,74.9891433 C18.1472155,74.7090044 17.644227,74.4320309 17.2377021,74.0838357 C16.7433264,73.6580879 16.1679902,73.3494603 15.4961904,73.2370882 C15.3325469,73.2085995 15.1516778,73.1959379 15.008705,73.2734904 C14.8226681,73.3732009 14.7572107,73.6026932 14.8019974,73.797366 C14.846784,73.9920388 14.9759763,74.1598056 15.103446,74.3196588 C15.8613739,75.2613686 16.70543,76.1445183 17.6476722,76.9327057 C18.4934508,77.6433405 19.6441232,78.6372796 20.781015,78.9063395 C19.1962567,78.532821 17.7837547,77.9757086 16.5865731,76.9532809 C16.0353528,76.4800519 15.41523,76.0099883 14.6659149,75.9213568 C14.4402591,75.8944508 14.1715392,75.9229395 14.0544049,76.1017853 C13.9286577,76.2917099 14.0440695,76.5338639 14.1663715,76.7253713 C14.9949245,78.0263552 16.2334476,79.5188466 17.7355229,80.1867483 C18.5571856,80.5523533 19.28583,81.1411198 20.0782091,81.570033 C20.9343232,82.0353484 21.8128305,82.4658443 22.6603317,82.9454041 C24.6447248,84.0627942 27.1424417,85.1865151 29.3817742,85.76262 C30.0242903,85.9288041 30.7047029,86.0126874 31.3713349,85.9984431 C32.0810311,85.9841987 32.4651627,85.8480861 32.9957123,85.4334172 C33.9310642,84.7022072 34.5339614,83.6512908 34.8061264,82.5592239 C35.1282458,81.2629881 35.0145566,79.903444 34.7165531,78.6008773 C34.5994188,78.0817499 34.4530009,77.5610398 34.2772994,77.0434951 C33.3333347,74.2563506 31.5590944,71.5689166 28.92874,69.9877937 Z" id="Fill-96" fill="#FFC098"></path><path d="M10.3510464,67.3756446 C10.2595557,67.2439796 10.1573912,67.1072506 10.0140559,67.0667383 C9.67859019,66.9738976 9.44376423,67.4381011 9.40869282,67.8162159 C9.30195375,68.906672 9.73958395,69.9549277 10.0491273,70.9981194 C10.3723942,72.0987036 10.3464718,73.4491136 10.2107607,74.7708274 L10.0018571,74.4332249 C8.31385489,71.9619746 7.4736659,68.5808855 6.34223172,65.7298324 C6.21109514,65.398982 6.01591512,65.0174912 5.69112337,65.000611 C5.23519504,64.9769789 5.05526346,65.6437438 5.0567883,66.1484595 C5.06288768,68.4390925 5.48831913,70.4512034 6.41237454,72.5122666 C5.48984397,71.0048715 4.71827295,69.3843795 4.12053414,67.6896149 C3.97262428,67.2760519 3.75762129,66.7899043 3.35811219,66.757832 C1.72805405,66.6278551 3.78354364,73.5892186 4.09308695,74.450105 C3.24222405,73.1705915 2.64601008,71.6817645 2.36238911,70.122041 C2.30749473,69.8215747 2.26022457,69.5109804 2.1153644,69.2476505 C1.94763157,68.9454962 1.51305106,68.6517821 1.2507779,68.9674404 C1.02967554,69.2307704 0.985455063,69.9549277 0.959532717,70.2959062 C0.881765677,71.3171538 1.10591773,72.3502174 1.44138339,73.2955044 C1.93085829,74.6779867 2.65058461,75.9558121 3.06381731,77.3669906 C2.35019036,76.3896314 1.63656341,75.4139601 0.922936463,74.4366009 C0.775026604,74.2323514 0.581371427,74.0061577 0.345020621,74.043294 C0.0324276195,74.0922463 -0.060587859,74.5632018 0.0370021512,74.8940523 C0.704883784,77.1205408 1.74482733,79.2187403 3.15683279,80.9742733 C3.84606224,81.8334717 4.70912389,82.5053006 5.36328193,83.3780031 C6.02506419,84.2591456 6.94606991,84.9394146 7.89299798,85.3833619 C8.89634527,85.8509414 9.99575773,86.068695 11.0829714,85.9809184 C11.9262101,85.9117098 12.4187347,85.7007083 12.9112593,84.9731749 C13.3351659,84.3435462 13.7560228,83.5906927 13.8581874,82.7973268 C14.0396438,81.3861483 14.0609916,79.9699059 13.8398892,78.5621034 C13.2528243,74.8265318 12.4599055,70.4427633 10.3510464,67.3756446 Z" id="Fill-97" fill="#FFC098"></path><path d="M49.8449699,80.7025097 C48.3369081,61.0005443 51.8324156,40.0530238 60.1117749,47.5627936 C64.8839749,51.8907663 65.1669446,88.7158017 61.4900035,94.15848 C57.811398,99.599502 42.04333,91.7799998 31.0141715,86.2776939 C30.7328664,81.5240461 34.7327257,75.5811581 34.7327257,75.5811581 L49.8449699,80.7025097 Z" id="Fill-98" fill="#22407A"></path></g><path d="M300.312522,309.32717 C297.346324,310.288467 300.021632,313.667622 302.298802,313.927432 C304.575973,314.183995 311.815906,313.842994 313.925594,311.55017 C316.035282,309.257346 322,306.805389 322,306.805389 C322,299.355335 320.388351,294.67713 320.388351,294.67713 L314.400127,294 C314.400127,294 303.27872,308.364249 300.312522,309.32717 Z" id="Fill-41" fill="#504E7B"></path><path d="M330.127599,322.705015 C329.596134,325.927292 330.845972,327.757858 331.650485,328.793376 C332.454997,329.82739 342.287927,326.821534 343.632032,323.31821 C344.976137,319.814885 342.221291,316.748912 342.010005,310.178112 C338.830962,304.922373 333.171745,307.770421 333.171745,307.770421 C332.760549,313.146394 330.660691,319.481235 330.127599,322.705015 Z" id="Fill-43" fill="#504E7B"></path><polygon id="Fill-65" fill="#8BBFDD" points="266.733765 326 389 255.737021 290.266235 199 168 269.261473"></polygon><path d="M169.180725,270.408728 C167.613536,269.626927 167.605034,268.360337 169.163721,267.580992 C170.719574,266.802873 173.253149,266.806555 174.820338,267.59081 C176.38611,268.37261 176.394612,269.640428 174.837342,270.418546 C173.280072,271.197892 170.747914,271.192982 169.180725,270.408728 Z" id="Fill-66" fill="#8BBFDD"></path><path d="M313.327179,292.557195 C311.565607,291.969251 311.556042,291.019708 313.308049,290.436364 C315.060055,289.852101 317.908859,289.854861 319.672024,290.442805 C321.43519,291.030749 321.443161,291.980292 319.692749,292.563636 C317.940742,293.147899 315.091939,293.145139 313.327179,292.557195 Z" id="Fill-67" fill="#8BBFDD"></path><path d="M314.033184,377.70488 C312.661576,377.312935 312.654778,376.679599 314.017888,376.291018 C315.379298,375.901596 317.595627,375.903278 318.967235,376.294382 C320.337143,376.686328 320.345642,377.319664 318.984231,377.709086 C317.621121,378.098508 315.403093,378.096826 314.033184,377.70488 Z" id="Fill-68" fill="#7E80B0"></path><polygon id="Fill-69" fill="#8CA7EB" points="313.217853 377 319.782147 377 321 283 312 283"></polygon><path d="M263.180982,325.114186 C261.61369,323.939868 261.605187,322.038504 263.16256,320.871549 C264.719933,319.704593 267.253676,319.710115 268.819551,320.884433 C270.386844,322.060592 270.393929,323.960115 268.837973,325.127071 C267.2806,326.295867 264.748275,326.290345 263.180982,325.114186 Z" id="Fill-70" fill="#8BBFDD"></path><path d="M263.885506,418.262163 C262.709949,417.284352 262.704122,415.700929 263.872396,414.727323 C265.04067,413.753718 266.938752,413.757923 268.114309,414.737837 C269.289867,415.717751 269.295694,417.299071 268.128876,418.272677 C266.960602,419.246282 265.059607,419.242077 263.885506,418.262163 Z" id="Fill-71" fill="#7E80B0"></path><polygon id="Fill-72" fill="#7C98FE" points="263.081311 418 268.917272 418 270 322 262 322"></polygon><path d="M286.18027,202.409302 C284.612977,201.626424 284.605891,200.360075 286.163265,199.582105 C287.719222,198.802907 290.251549,198.806588 291.820259,199.589467 C293.386135,200.373573 293.394638,201.639922 291.837264,202.419119 C290.27989,203.197089 287.747564,203.193408 286.18027,202.409302 Z" id="Fill-73" fill="#8BBFDD"></path><path d="M287.032519,295.556686 C285.662651,294.968769 285.654153,294.018766 287.017223,293.435896 C288.378592,292.853025 290.596554,292.854287 291.968121,293.442204 C293.337989,294.030121 293.344787,294.980124 291.983417,295.564256 C290.620348,296.148388 288.404086,296.144603 287.032519,295.556686 Z" id="Fill-74" fill="#8BBFDD"></path><polygon id="Fill-75" fill="#8BBFDD" points="286.082728 294 291.918689 294 293 200 285 200"></polygon><path d="M400.2684,262.502308 L277.959123,333.040491 C248.72886,349.896581 197.674688,347.782387 163.923704,328.319093 C145.846876,317.8933 136.4118,304.607749 136.025738,291.924094 L136,291.889311 L136,297.47877 L136.025738,297.460622 C136.390605,310.156376 145.827194,323.461587 163.923704,333.897965 C197.674688,353.362772 248.72886,355.476966 277.959123,338.619364 L400.2684,268.082693 C413.486891,260.459191 419.954581,250.258731 419.978804,239.574336 L420,239.590971 L420,234 L419.978804,234.034783 C419.937927,244.705568 413.470238,254.889392 400.2684,262.502308 Z" id="Fill-76" fill="#7C98FE"></path><path d="M276.962703,333.673917 L399.288218,263.47536 C412.491645,255.898936 418.961627,245.762423 419,235.144293 C419.04642,222.253537 409.608695,208.646377 391.098156,198.023732 C357.343109,178.653734 306.282791,176.549674 277.04901,193.324964 L154.725009,263.525026 C141.147586,271.316672 134.679117,281.809883 135.012231,292.757619 C135.398341,305.378971 144.836066,318.600838 162.913557,328.97515 C196.668603,348.346652 247.73195,350.450713 276.962703,333.673917 Z" id="Fill-77" fill="#E0E6FE"></path><path d="M297.513712,279 L266.398487,297.198673 L264,297.559149 L264,298.191132 C264,298.451902 264.10448,298.646713 264.340694,298.800107 L283.104618,309.773919 C283.673956,310.108318 284.671811,310.066901 285.328973,309.681882 L316.457826,291.47554 C316.859088,291.239313 317.040791,290.932525 316.992337,290.653348 L316.992337,289.608734 L315.924828,289.768264 L297.513712,279 Z" id="Fill-78" fill="#37365B"></path><path d="M262.837482,298 L255.079134,272.742913 C254.852886,271.984938 255.128579,271.100376 255.691951,270.763842 L287.017517,252.129388 C287.582387,251.792853 288.222174,252.135563 288.446923,252.893538 L296,278.27258 L262.837482,298 Z" id="Fill-79" fill="#504E7B"></path><polygon id="Fill-80" fill="#FFFFFF" points="264.072302 296 257 273.517232 288.233478 255 295 277.664645"></polygon><path d="M285.328201,309.671365 C284.671064,310.0688 283.673244,310.111552 283.103927,309.767953 L264,298.234395 L297.5125,278 L316.614913,289.533558 C317.185744,289.878741 317.113066,290.480437 316.455928,290.877873 L285.328201,309.671365 Z" id="Fill-81" fill="#504E7B"></path><path d="M285.328201,309.671365 C284.671064,310.0688 283.673244,310.111552 283.103927,309.767953 L264,298.234395 L297.5125,278 L316.614913,289.533558 C317.185744,289.878741 317.113066,290.480437 316.455928,290.877873 L285.328201,309.671365 Z" id="Fill-82" fill="#504E7B"></path><polygon id="Fill-83" fill="#152333" points="274.960757 303 266 298.175052 296.039243 282 305 286.824948"></polygon><path d="M294.227746,300.786697 C293.807552,301.043793 293.169479,301.073649 292.805311,300.848068 L289.246111,298.656948 C288.881943,298.434684 288.927075,298.041576 289.347269,297.782822 L296.772254,293.214808 C297.192448,292.956053 297.830521,292.926197 298.194689,293.151778 L301.753889,295.34124 C302.118057,295.566821 302.072925,295.959929 301.652731,296.218683 L294.227746,300.786697 Z" id="Fill-84" fill="#37365B"></path><path d="M172.419097,280 L194,287.05833 C194,287.05833 181.291178,320.71215 179.578456,319.988495 C177.8642,319.264839 157,308.821769 157,308.821769 C157.782695,307.254617 172.419097,280 172.419097,280 Z" id="Fill-85" fill="#FCFCFC"></path><polygon id="Fill-86" fill="#FCFCFC" points="368.073938 226.288459 400.37849 229.028386 381.83894 242.288459 350.37849 239.20421"></polygon><path d="M223.741445,302.881689 L223.603752,302.780433 L208.833964,294.228879 C208.248007,293.889824 207.226025,293.932781 206.549803,294.322464 L186.558419,305.896365 L186.276914,306.109617 L186.00306,306.134164 L186,306.664992 C186.016829,306.872107 186.139222,307.070017 186.394718,307.218833 L201.166036,315.771921 C201.751993,316.110976 202.773975,316.066485 203.450197,315.675268 L223.441581,304.102901 C223.805701,303.891184 223.989291,303.621167 223.99235,303.364958 L224,303.363424 L224,302.858676 L223.741445,302.881689 Z" id="Fill-87" fill="#9FB0B9"></path><path d="M186.394507,307.219105 C185.81007,306.880056 185.883507,306.287872 186.558211,305.896661 L206.549956,294.322976 C207.22619,293.931766 208.248191,293.890343 208.834158,294.229392 L223.604213,302.780787 C224.19018,303.119836 224.116743,303.710487 223.442039,304.101697 L203.450294,315.675382 C202.77406,316.068127 201.752059,316.109549 201.166092,315.772034 L186.394507,307.219105 Z" id="Fill-88" fill="#504E7B"></path><polygon id="Fill-89" fill="#FFFFFF" points="188 305.507967 207.564584 294 222 302.490493 202.435416 314"></polygon><g id="Group-72" transform="translate(415.359121, 234.926277) scale(-1, 1) rotate(-16.000000) translate(-415.359121, -234.926277) translate(360.359121, 131.426277)"><path d="M90.5060813,99.7927097 L93.5261906,101.184283 C93.5261906,101.184283 99.7864172,98.9345728 103.371547,104.992555 C103.371547,104.992555 104.651593,107.590159 102.446513,107.720039 C100.246434,107.854558 101.056463,107.506665 97.956351,107.757148 C94.8562388,108.007631 91.8611304,106.917565 90.7710909,105.034303 L88.7410175,103.50821 L90.5060813,99.7927097" id="Fill-851" fill="#F5C3A9" transform="translate(96.241017, 103.792710) rotate(14.000000) translate(-96.241017, -103.792710) "></path><path d="M100.375714,95.3404059 C101.683059,93.2391857 100.78856,92.2644939 100.78856,92.2644939 C100.78856,92.2644939 81.615811,76.2726902 80.1217029,74.6612649 C78.6275948,73.0498397 72.0712126,47.5560148 72.0712126,47.5560148 C72.0712126,47.5560148 69.8447949,37.245832 64.1632523,36.0556304 C59.2238489,35.0221632 55.7441497,37.5299131 53.4390948,40.4882743 C50.6917052,44.0098997 50.3280079,48.9029508 52.4708734,52.7919224 C57.2677468,61.5249656 66.9548753,78.8588073 69.8300504,81.8318624 C76.2193285,88.4489916 97.8740662,97.8187681 97.8740662,97.8187681 C97.8740662,97.8187681 99.348515,96.9910147 100.375714,95.3404059" id="Fill-852" fill="#38B0BA" transform="translate(76.087168, 66.818768) rotate(14.000000) translate(-76.087168, -66.818768) "></path><path d="M21.4544386,189.787369 C21.4544386,189.787369 20.8471627,197.166481 22.3332606,197.931686 L41.3316151,197.892695 C41.3316151,197.892695 41.3316151,195.587332 38.2804241,195.07557 C35.229233,194.563809 29.8674313,192.68735 28.9589861,188.505528 C28.0505409,184.32858 21.4544386,189.787369 21.4544386,189.787369" id="Fill-854" fill="#1B2251" transform="translate(31.331615, 192.431686) rotate(16.000000) translate(-31.331615, -192.431686) "></path><path d="M4.66636441,195.21854 C4.66636441,195.21854 4.05908853,202.597653 5.54518642,203.362858 L24.5435409,203.323867 C24.5435409,203.323867 24.5435409,201.018503 21.4923499,200.506742 C18.4411588,199.99498 13.0793571,198.118522 12.1709119,193.9367 C11.2624667,189.759752 4.66636441,195.21854 4.66636441,195.21854" id="Fill-854-Copy" fill="#1B2251" transform="translate(14.543541, 197.862858) rotate(17.000000) translate(-14.543541, -197.862858) "></path><path d="M49.0455331,84.2976406 C49.0455331,84.2976406 48.0432408,97.3927885 46.863202,113.138556 C45.2634841,134.526146 43.3378978,160.795417 43.1502765,165.775818 C42.8194707,174.418715 41.4962473,188.239451 41.4962473,188.239451 C41.4962473,188.239451 38.3659352,191.526812 32.0954361,190.139803 C32.0954361,190.139803 26.5112358,170.405765 24.911518,149.526581 C24.8868309,149.185999 24.8621439,148.84048 24.8374569,148.494962 C23.3562367,127.240643 21.0455331,82.4812009 21.0455331,82.4812009 L49.0455331,84.2976406" id="Fill-855" fill="#F34165" transform="translate(35.045533, 136.481201) rotate(12.000000) translate(-35.045533, -136.481201) "></path><path d="M36.2924816,144.331733 C28.7024369,161.813064 11.552249,195.024981 11.552249,195.024981 C11.552249,195.024981 3.6637865,193.01414 3.04601328,191.064884 C6.66753082,180.65726 15.7319417,150.443838 20.1183104,137.704899 C25.1646168,123.049361 30.9791727,93.4980865 31.9285622,90.7408591 L57.1241438,96.5578877 C57.1241438,96.5578877 43.8825262,126.850402 36.2924816,144.331733 Z" id="Fill-857" fill="#FE5476" transform="translate(30.085079, 142.882920) rotate(-3.000000) translate(-30.085079, -142.882920) "></path><path d="M77.4381918,38.1580445 C76.8897816,37.5180799 77.6310128,36.8308251 76.01993,35.152637 C77.799951,30.0796511 78.2741559,27.2912171 78.7191811,25.7392295 L77.0379747,22.4552223 L72.2205343,17.4223323 C69.0259261,25.3894973 62,28.9280248 62,28.9280248 C62,28.9280248 69.7155955,37.2397405 77.4381918,38.1580445 Z" id="Fill-858" fill="#F5C3A9"></path><path d="M31.1837901,93.3939415 C35.3406243,97.9034751 36.7361998,98.4008443 41.9545644,101.315303 C48.1054885,104.800837 54.0073565,105.933225 56.6016576,107.134454 C56.8695204,107.252608 57.1572249,107.252608 57.4548503,107.163993 C57.6879901,107.119685 72.4855167,71.0011252 72.7335378,70.3611259 C75.9181292,62.1592887 77.4962848,52.794273 78.3246754,48.0041243 C79.0092137,43.9311031 78.5362227,40.03834 76.9057025,36.325835 C74.2915597,35.7399895 71.8113484,34.4944524 69.8222189,32.1559934 C67.6346725,29.6009192 65.2784718,26.8489222 64.6385772,27.0064605 C60.8736165,27.8187673 56.9350409,30.959687 53.1551988,35.6464511 C52.1035892,36.946142 51.0619004,38.3689097 50.0450138,39.8950619 C47.6243275,43.5085964 45.3226914,47.678438 43.2492348,52.2076638 C43.1649076,52.3848944 43.0805804,52.5719711 42.9962532,52.7541248 C42.8375197,53.113509 42.6837466,53.4532009 42.5448547,53.7732006 C41.7065433,55.6538139 40.8979944,57.6082733 40.153931,59.5627327 C36.1855929,70.1817981 29.0688257,89.9875752 28.6670315,90.8146513 C29.1957906,91.501626 30.0347102,92.3613894 31.1837901,93.3939415 Z" id="Fill-859" fill="#35A7B1"></path><path d="M82.1370535,27.9763465 C82.1370535,27.9763465 70.249668,24.8301106 72.2205343,17.4223323 C74.1961843,10.014554 73.9952707,4.61822364 81.6682552,6.31309995 C89.3412397,8.00797626 90.0587882,11.2516188 89.9966006,13.89134 C89.9344131,16.5310611 85.2799156,28.6046197 82.1370535,27.9763465" id="Fill-861" fill="#F5C3A9"></path><path d="M73.2787223,2.08450622 C73.2233927,1.91733699 73.0221944,1.71575057 72.4940488,1.45516324 C72.4940488,1.45516324 73.0473442,1.37649537 73.6358493,1.61249899 C74.0835156,0.924155109 75.0744174,-0.211612289 76.5180154,0.0342248104 C76.5180154,0.0342248104 75.6578926,0.0981424561 75.2102263,0.840570495 C77.3982581,-0.0198593514 81.1254573,0.275145167 89.7468058,4.82804824 C101.109482,10.8313902 93.8914915,16.5200607 91.9700474,16.7413141 C90.0486033,16.9576507 87.3022461,12.8915051 84.3647504,11.883573 C81.4222248,10.8756409 79.0682043,14.6516987 77.8559844,14.7893675 C76.6437644,14.9221195 77.4636476,14.1108571 76.4174163,12.970173 C75.3762149,11.8344056 74.2947739,13.8896037 74.0533359,15.4285439 C73.8068679,16.9625674 71.1963195,18 71.1963195,18 C71.1963195,18 71.1963195,18 70.2506874,15.3105421 C69.3000252,12.6210843 71.2466191,3.81519939 72.8511758,2.44834512 C72.9920147,2.33034331 73.1328535,2.20742476 73.2787223,2.08450622" id="Fill-862" fill="#131730"></path><path d="M78.279124,111.640556 L81.5241374,113.016234 C81.5241374,113.016234 88.1194891,110.691339 92.0716847,116.762662 C92.0716847,116.762662 93.4910645,119.367279 91.1538524,119.523189 C88.8166404,119.674513 89.6742869,119.321423 86.3841342,119.596558 C83.098997,119.876279 79.889092,118.803251 78.6903931,116.918573 L76.4986298,115.396156 L78.279124,111.640556" id="Fill-864" fill="#F5C3A9" transform="translate(84.498630, 115.640556) rotate(28.000000) translate(-84.498630, -115.640556) "></path><path d="M97.5635243,100.030064 C97.5635243,100.030064 74.5221745,84.3587975 72.9035388,82.7286676 C71.2849032,81.0936276 64.1160342,56.703057 64.1160342,56.703057 C64.1160342,56.703057 61.533105,46.1857729 55.4816708,45.0270059 C50.2272547,44.0204497 45.7134349,47.2366127 44.8391825,51.1519229 C44.6033789,52.2079618 44.6334043,56.2945548 46.8013931,60.3833976 C52.5703885,71.2637654 61.4123547,86.6600522 64.5217095,89.6699005 C71.43904,96.3720914 94.5919257,105.730608 94.5919257,105.730608 C94.5919257,105.730608 96.1367634,104.876263 97.1896146,103.177393 C98.5327378,101.01698 97.5635243,100.030064 97.5635243,100.030064 Z" id="Fill-865" fill="#38B0BA" transform="translate(71.321467, 75.285603) rotate(28.000000) translate(-71.321467, -75.285603) "></path></g><path d="M159.888297,240.718274 C165.523787,242.327076 168.605672,245.808101 169.965644,250.973829 C171.337937,256.181229 171.741462,264.865188 168.654957,269.702012 C166.726661,272.72912 162.431121,272.162095 159.361558,271.373321 C155.649743,270.422327 150.7982,268.87752 147.753279,266.657045 C143.516265,263.55999 141.273775,256.788436 141.015026,251.890594 C140.791701,247.671395 143.049593,241.252557 148.338545,240.416159 C151.808553,239.866993 156.539962,239.761327 159.888297,240.718274 Z" id="Fill-99" fill="#F5C3A9"></path><path d="M141.089701,251.482978 C141.345788,256.632071 143.565209,263.750994 147.758634,267.006923 C150.075612,268.801518 150.179266,269.00648 153.285846,270 C153.573944,269.859186 154.27361,269.358515 155.078455,268.756144 C156.81314,267.455963 157.63018,265.166955 156.997584,263.059441 C156.374134,260.984784 156.311637,258.497072 157.454882,257.857152 C159.322184,256.808871 160.570608,260.532615 160.570608,260.532615 C161.648308,260.125819 163.290008,258.845978 162.384558,256.6352 C161.476059,254.422858 162.384558,252.100994 162.384558,252.100994 C165.696922,252.166707 167.238017,247.537061 168.28523,246.931561 C170.522943,245.640767 171.272912,245.126014 170.914695,242.9434 C170.678424,241.511792 170.108326,240.09583 169.073307,239.10544 C167.905672,237.986752 163.969859,236.453445 162.421142,236.054473 C153.212678,233.687235 146.113885,235.373872 144.004215,240.42909 C140.65984,242.705581 140.912879,247.887531 141.089701,251.482978 Z" id="Fill-100" fill="#504E7B"></path><path d="M133.369021,276.294707 C120.190854,286.942484 123.78804,330.07742 127.044282,339.934453 C130.299022,349.791486 152.181027,350.606468 158.711534,349.736952 C165.243543,348.868952 158.797146,337.494053 160.973481,329.960777 C163.151318,322.427501 180.305163,280.195407 164.117076,274.119403 C155.971965,271.062465 146.547188,265.648444 133.369021,276.294707 Z" id="Fill-101" fill="#504E7B"></path><path d="M180.934743,304.695098 L184.231801,284.011273 C184.231801,284.011273 191.678553,280.496255 196,285.166207 C193.021913,305.207895 191.42399,325.788249 184.231801,326.94927 C177.03808,328.108769 165.184005,309.100283 158.775443,299.813636 C152.366881,290.52699 157.677446,269.776211 168.347647,276.218889 C171.856331,278.338551 180.934743,304.695098 180.934743,304.695098 Z" id="Fill-102" fill="#504E7B"></path><polygon id="Fill-103" fill="#37365B" points="197.351419 265.559803 199 265 198.228171 266.27228 191.451312 272 191 270.962477"></polygon><path d="M185.259466,276.158732 C186.341148,273.940425 187.655735,272.523292 187.655735,272.523292 C188.806194,269.114708 191.921501,269.482272 194.384984,271.712066 C196.850031,273.940425 200.29203,279.443838 195.862136,284.0829 C191.102424,287.814539 186.835095,284.948686 186.835095,284.948686 C186.835095,284.345651 184.176221,278.378476 185.259466,276.158732 Z" id="Fill-104" fill="#F5C3A9"></path><path d="M100.569996,291.33516 C97.9277004,291.102662 94.9406251,293.309889 93.7277932,296.406347 C91.5507981,301.963668 94.4646458,362.472185 99.7141484,361.185894 C101.383127,362.913026 137.89013,383 137.89013,383 L140,313.461781 C140,313.461781 114.217787,291.365355 100.583726,291 C100.583726,291 100.577624,291.122288 100.569996,291.33516 Z" id="Fill-105" fill="#40406B"></path><path d="M132.719028,318.099079 C134.872185,312.534721 142.67757,309.829656 144.023482,318.97607 C145.369394,328.125509 152.367533,379.573144 138.639834,382.979801 C133.449321,384.266559 130.567379,323.66495 132.719028,318.099079 Z" id="Fill-106" fill="#DF7B74"></path><path d="M289,203.664982 C289,203.998484 288.279739,205 286.696732,205 C285.113725,205 283,203 283,203 C285.247059,203.877211 289,203.331481 289,203.664982 Z" id="Fill-107" fill="#F5C3A9"></path><path d="M282.375604,203.477587 C285.433866,205.17111 287.422037,205.17111 288.416875,205.45315 C289.411713,204.182688 290.901713,205.17111 291.896551,207.005653 C292.889884,208.841477 286.427199,211.09908 285.433866,211.805462 C284.440533,212.510563 274,211.072158 274,211.072158 L274,206.441572 C275.49301,205.03009 279.315837,201.784065 282.375604,203.477587 Z" id="Fill-108" fill="#F5C3A9"></path><path d="M304.079717,321.137863 C292.704323,322.501235 296.30709,366.817728 296,368.687734 C295.69291,370.557741 301.276996,372.568698 307.2507,371.545042 C309.802882,357.921845 313.906596,342.936781 313.906596,342.936781 C313.906596,342.936781 338.6617,350.064795 342.35791,346.500788 C346.052612,342.936781 342.35791,328.972366 342.35791,328.972366 C342.35791,328.972366 315.453602,319.774491 304.079717,321.137863 Z" id="Fill-109" fill="#587BF1"></path><path d="M309.752038,391.948892 C310.133967,392.362747 310.73283,392.673873 311.430995,392.858787 C312.419426,393.146431 313.269959,393.571147 314.357692,393.292308 L327.735879,389.89341 C329.963286,389.334265 332.535956,390.060713 333.018713,391.385932 L335.899981,399.324032 C336.257466,400.313176 337.826428,401 339.603159,401 C339.803289,401 340.00342,400.991195 340.202022,400.975051 C341.372251,400.872321 342.343877,400.480479 342.899965,399.946283 C343.167314,399.698263 343.339946,399.412086 343.397999,399.108299 L343.397999,399.059869 C343.42397,398.924852 343.416332,398.789836 343.391888,398.653351 L342.278185,393.029613 L341.787789,390.571429 C341.521967,389.222729 343.573686,388.091231 345.999695,388.233585 L360.765047,389.136143 C360.905597,389.143481 361.038508,389.150818 361.179058,389.150818 C361.802365,389.150818 362.401228,389.064232 362.932873,388.911604 C363.977829,388.609284 364.750852,388.050139 364.950982,387.364782 C365.274858,386.256765 363.961024,385.203048 361.978052,384.979977 L347.518243,383.367115 C346.887297,383.295204 346.323571,383.145511 345.866784,382.937116 C344.595727,382.354489 344.088526,381.341864 344.835578,380.440775 L349.959529,374.224137 L350.989208,372.972297 C351.180172,372.741889 351.28864,372.502674 351.32225,372.26933 L351.339054,372.094689 C351.339054,371.328616 350.584364,370.59483 349.279696,370.227937 C347.469356,369.717221 345.251116,370.09292 344.24588,371.073258 L336.920494,378.212999 C335.716655,379.387058 332.852192,379.649753 331.057129,378.741326 L320.195085,373.227655 C319.472477,372.860762 318.560432,372.677315 317.645331,372.677315 C316.673705,372.677315 315.694441,372.884243 314.945861,373.299566 C314.157561,373.73837 313.784799,374.320997 313.833686,374.894818 C313.865768,375.365908 314.198809,375.836999 314.814478,376.21123 L315.677636,376.729283 L324.746144,382.234148 C326.36552,383.215955 325.934705,384.780387 323.882986,385.458406 L323.798962,385.489225 L311.279752,389.157569 C310.043831,389.546475 309.345666,390.265586 309.345666,391.00084 C309.345666,391.317836 309.478577,391.645104 309.752038,391.948892 Z" id="Fill-110" fill="#8CA7EB"></path><path d="M350.6589,376.008667 C350.854485,375.739579 350.9734,375.46884 351,375.191498 L351,371 C350.965577,371.262485 350.854485,371.531572 350.6589,371.790755 L349.604306,373.198927 L344.356372,380.191911 C343.591244,381.20553 344.110718,382.344614 345.412531,383 L350.6589,376.008667 Z" id="Fill-111" fill="#8CA7EB"></path><polygon id="Fill-112" fill="#37365B" points="320.011 383.513 319.989 383.383 319.989 383.617"></polygon><path d="M341.531666,393 C342.289118,392.263212 343.748674,391.792228 345.383756,391.89171 L360.66719,392.846114 C360.812671,392.85544 360.950246,392.864767 361.095727,392.864767 C363.013865,392.864767 364.690062,392.068912 365,390.971503 L365,387 C364.792847,387.725907 363.992701,388.318135 362.91108,388.638342 C362.360781,388.8 361.740905,388.89171 361.095727,388.89171 C360.950246,388.89171 360.812671,388.883938 360.66719,388.876166 L345.383756,387.920207 C342.872624,387.76943 340.748914,388.967876 341.024064,390.396373 L341.531666,393 Z" id="Fill-113" fill="#8CA7EB"></path><path d="M333.96775,398.452 C334.05375,398.146 334.05375,397.842 333.96775,397.548 L333.96775,398.452 Z" id="Fill-114" fill="#37365B"></path><path d="M309.440765,394.415204 C309.449825,394.76676 309.581198,395.118316 309.842435,395.45163 C310.745437,396.587554 312.90479,397.065139 314.736466,396.532831 L327.959862,392.692248 C330.161497,392.062101 332.7044,392.881293 333.181571,394.377063 L336.029502,403.348372 C336.38285,404.464396 337.917048,405.240472 339.665672,405.240472 C339.871037,405.240472 340.076402,405.223889 340.281767,405.205648 C342.02133,405.033187 343.303351,404.131081 343.440765,403.049881 C343.440765,403.049881 343.440765,402.887369 343.440765,402.627019 L343.440765,398.867692 C343.383383,399.210957 343.212749,399.534322 342.948493,399.814572 C342.398839,400.418186 341.438455,400.860948 340.281767,400.977028 C340.085462,400.995269 339.887647,401.005218 339.689832,401.005218 C337.933659,401.005218 336.38285,400.229142 336.029502,399.11146 L333.181571,390.14181 C332.7044,388.644381 330.161497,387.823531 327.959862,388.455337 L314.736466,392.295919 C313.661319,392.610993 312.47896,392.576169 311.501966,392.251145 C310.811879,392.042202 310.219944,391.690646 309.842435,391.22301 C309.572138,390.879746 309.440765,390.509949 309.440765,390.15176 L309.440765,394.415204 Z" id="Fill-115" fill="#8CA7EB"></path><path d="M315.000122,377.122812 C314.993061,377.70464 315.292438,378.293137 315.906726,378.754932 L324.599252,385.195218 C326.495776,384.425004 326.584033,382.452626 325.087148,381.337316 L316.704594,375.083912 L315.906726,374.495415 C315.337627,374.070297 315.029777,373.535149 315.000122,373 L315.000122,377.122812 Z" id="Fill-116" fill="#8CA7EB"></path><path d="M312.731444,400.991875 C314.660403,400.861308 316.120155,399.192596 315.99219,397.264342 C315.862645,395.336089 314.195936,393.877558 312.266977,394.008125 C310.339598,394.138692 308.879845,395.807404 309.00781,397.735658 C309.137355,399.663911 310.804064,401.122442 312.731444,400.991875 Z" id="Fill-117" fill="#667FBF"></path><path d="M339.732285,408.992057 C341.661676,408.861486 343.120174,407.192733 342.992181,405.264431 C342.864187,403.334537 341.195525,401.877563 339.267715,402.008133 C337.338324,402.138704 335.879826,403.807457 336.007819,405.735759 C336.135813,407.66406 337.802895,409.121035 339.732285,408.992057 Z" id="Fill-118" fill="#667FBF"></path><path d="M361.733023,394.994195 C363.660402,394.900911 365.120155,393.709841 364.99219,392.332203 C364.862645,390.954566 363.195936,389.912522 361.268556,390.005805 C359.339597,390.099089 357.879845,391.291297 358.00781,392.668934 C358.137355,394.045434 359.804064,395.087478 361.733023,394.994195 Z" id="Fill-119" fill="#667FBF"></path><path d="M350.732369,378.991865 C352.66171,378.861268 354.120171,377.192181 353.992181,375.263493 C353.86419,373.334805 352.197151,371.877539 350.26781,372.008135 C348.338469,372.138732 346.878428,373.807819 347.007999,375.736507 C347.135989,377.665195 348.803028,379.122461 350.732369,378.991865 Z" id="Fill-120" fill="#667FBF"></path><path d="M317.730793,382.991873 C319.660136,382.861276 321.120179,381.192185 320.992188,379.263492 C320.864198,377.336393 319.195577,375.87753 317.266234,376.008127 C315.338471,376.138724 313.878428,377.806223 314.007999,379.734915 C314.13599,381.663607 315.80145,383.12247 317.730793,382.991873 Z" id="Fill-121" fill="#667FBF"></path><path d="M340,387.901632 L340,356 L332,356 L332,387.901632 C332,392.465961 340,391.575705 340,387.901632 Z" id="Fill-122" fill="#7E96D4"></path><path d="M335.193525,377.712116 C335.865631,378.078252 336.698056,378.114865 337.343956,377.707539 L337.356288,377.699911 L337.376328,377.689232 C340.427011,375.77312 341.802332,365.999621 335.935279,361.685318 C334.207227,360.41147 303.206833,342.659165 298.250822,344.080993 L298.082796,344.143542 C297.92556,344.215243 297.768324,344.309828 297.63267,344.434925 C295.243302,346.383074 295.546983,354.119224 298.082796,356.483852 C300.513784,358.747793 329.741143,374.73726 335.193525,377.712116 Z" id="Fill-123" fill="#637CC1"></path><path d="M335.762701,363.930793 C341.466225,368.256603 340.000632,375.078778 337.034979,377 L371.812087,356.434049 L371.842058,356.412635 C374.481024,354.115122 375.519527,347.78396 370.11122,343.687596 C368.410353,342.396584 337.444087,321.145356 333.185176,323.130823 L332.900449,323.297554 L299,343.302128 C303.817874,341.876508 334.082814,362.653548 335.762701,363.930793 Z" id="Fill-124" fill="#5067A7"></path><path d="M278.518876,293.457794 C276.999964,292.225032 274.797824,290.488727 273.757454,291.14272 C272.718495,291.796713 276.11205,294.670598 276.11205,294.670598 C272.441816,293.106234 268.964976,292.757745 267.405127,292.670239 C265.846689,292.584268 261.202432,294.506332 262.118579,296.013894 C263.034725,297.52299 266.702136,299.630813 268.287394,300.625619 C269.872653,301.620426 274.879698,303.441167 278.518876,302.902314 C282.158054,302.366531 280.719604,297.030193 280.719604,297.030193 C280.719604,297.030193 280.037788,294.690556 278.518876,293.457794 Z" id="Fill-125" fill="#F5C3A9"></path><path d="M294.098609,350.942151 C294.098609,350.942151 292.071862,359.29939 286.352135,384.452611 C278.20122,385.684236 273.600244,383 273.600244,383 C273.600244,383 272.146731,335.263083 286.352135,333.103212 C300.559054,330.944849 328.98198,330.682224 328.927449,330 L342.954111,332.44061 C344.102298,350.566324 323.590955,359.148455 294.098609,350.942151 Z" id="Fill-126" fill="#6B8CFD"></path><path d="M319.368898,229.73958 C314.108987,231.39867 311.233934,234.988506 309.96316,240.317239 C308.685198,245.687412 308.308566,254.642816 311.187933,259.63083 C312.989154,262.75256 316.998417,262.166276 319.863408,261.354381 C323.32641,260.373661 327.856057,258.779031 330.696611,256.490683 C334.651247,253.298354 336.744286,246.3136 336.985791,241.26266 C337.19567,236.910042 335.088255,230.290564 330.148913,229.428021 C326.911602,228.863224 322.496957,228.754255 319.368898,229.73958 Z" id="Fill-127" fill="#F5C3A9"></path><path d="M336.909438,241.54124 C336.653346,246.394584 334.433876,253.109605 330.240358,256.17798 C327.923329,257.870012 327.818149,258.061785 324.713025,259 C324.426445,258.867234 323.726763,258.395176 322.921901,257.825756 C321.187178,256.601357 320.37012,254.441693 321.00273,252.4561 C321.624669,250.498536 321.688692,248.154474 320.545422,247.54965 C318.67503,246.562754 317.428103,250.072208 317.428103,250.072208 C316.351904,249.690137 314.708643,248.481964 315.615638,246.399009 C316.522632,244.313104 315.615638,242.122462 315.615638,242.122462 C312.303201,242.185894 310.762072,237.81936 309.713311,237.249941 C307.477073,236.032917 306.727088,235.547583 307.085313,233.491181 C307.320064,232.141391 307.8917,230.804878 308.925217,229.871089 C310.094402,228.816335 314.028778,227.369183 315.579053,226.994487 C324.786194,224.762539 331.88362,226.351308 333.996384,231.119091 C337.340833,233.265479 337.087789,238.151276 336.909438,241.54124 Z" id="Fill-128" fill="#131730"></path><path d="M342.005427,262.750841 C355.128458,273.459247 354.181697,319.96289 350.940575,329.877573 C347.697957,339.792256 325.907503,340.608831 319.404319,339.735888 C312.901135,338.861422 319.319066,327.423278 317.151836,319.847107 C314.984607,312.269413 298.568105,273.722806 312.646871,263.6573 C319.660079,258.645114 328.882396,252.043958 342.005427,262.750841 Z" id="Fill-129" fill="#4EC4F8"></path><path d="M307.003728,277.443967 C306.877307,286.736687 309.989083,298.123256 312.86934,307 C315.117495,303.684608 317.272739,300.245045 319.243682,297.30993 C325.607361,287.837161 320.335773,266.670497 309.737764,273.24385 C309.041689,273.673796 308.08668,275.23681 307.003728,277.443967 Z" id="Fill-130" fill="#2DA2D6"></path><path d="M378.266154,282.331517 C380.967807,282.104532 384.018462,284.286275 385.257109,287.349076 C387.480441,292.845991 384.501456,352.696807 379.141776,351.423004 C377.437273,353.131363 340.15322,373 340.15322,373 L338,304.217631 C338,304.217631 364.330986,282.361384 378.255248,282 C378.255248,282 378.259922,282.120959 378.266154,282.331517 Z" id="Fill-131" fill="#5067A7"></path><path d="M346.280333,308.100028 C344.12861,302.534109 336.322958,299.829021 334.975491,308.978538 C333.631042,318.125032 326.632663,369.573114 340.359324,372.979801 C345.550015,374.26657 348.433564,313.664434 346.280333,308.100028 Z" id="Fill-132" fill="#637CC1"></path><path d="M297.039218,299.460203 L282.448298,294.997996 C280.556308,295.027241 276.218467,298.49665 277.122368,302.877278 C286.283971,310.059293 291.277584,312.760629 298.206019,313.933517 C305.134454,315.106405 313.155842,300.494561 319.326594,291.099144 C325.498824,281.705266 320.385577,260.714882 310.108866,267.233491 C306.728097,269.37609 297.039218,299.460203 297.039218,299.460203 Z" id="Fill-133" fill="#4EC4F8"></path><path d="M185.802517,361.712991 C185.802517,361.712991 187.86501,369.97878 193.691514,394.856762 C201.99085,396.076402 206.976621,389.106388 206.976621,389.106388 C206.976621,389.106388 208.159817,346.206985 193.691514,344.070748 C179.223211,341.93451 150.275808,341.674758 150.331342,341 L136.046613,343.413903 C134.878844,361.341277 155.767561,369.832483 185.802517,361.712991 Z" id="Fill-141" fill="#6B8CFD"></path><path d="M159.888297,240.718274 C165.523787,242.327076 168.605672,245.808101 169.965644,250.973829 C171.337937,256.181229 171.741462,264.865188 168.654957,269.702012 C166.726661,272.72912 162.431121,272.162095 159.361558,271.373321 C155.649743,270.422327 150.7982,268.87752 147.753279,266.657045 C143.516265,263.55999 141.273775,256.788436 141.015026,251.890594 C140.791701,247.671395 143.049593,241.252557 148.338545,240.416159 C151.808553,239.866993 156.539962,239.761327 159.888297,240.718274 Z" id="Fill-142" fill="#F5C3A9"></path><path d="M141.05387,251.692634 C141.30746,256.840163 143.832787,263.750994 147.985313,267.006923 C150.279693,268.801518 150.382336,269.00648 153.458617,270 C153.743905,269.859186 154.436747,269.358515 155.233742,268.756144 C156.951508,267.455963 157.760579,265.166955 157.134153,263.059441 C156.516783,260.984784 156.454896,258.497072 157.586991,257.857152 C159.43608,256.808871 160.672328,260.532615 160.672328,260.532615 C161.739517,260.125819 163.365206,258.845978 162.468586,256.6352 C161.568948,254.422858 162.468586,252.100994 162.468586,252.100994 C165.748644,252.166707 167.274708,247.537061 168.311708,246.931561 C170.527596,245.640767 171.27025,245.126014 170.915527,242.9434 C170.681561,241.511792 170.117023,240.09583 169.092099,239.10544 C167.935852,237.986752 164.038425,236.453445 162.504813,236.054473 C153.386162,233.687235 146.356605,235.373872 144.267512,240.42909 C140.955755,242.705581 140.875754,248.095622 141.05387,251.692634 Z" id="Fill-143" fill="#131730"></path><path d="M133.369021,276.294707 C120.190854,286.942484 123.78804,330.07742 127.044282,339.934453 C130.299022,349.791486 152.181027,350.606468 158.711534,349.736952 C165.243543,348.868952 158.797146,337.494053 160.973481,329.960777 C163.151318,322.427501 180.305163,280.195407 164.117076,274.119403 C155.971965,271.062465 146.547188,265.648444 133.369021,276.294707 Z" id="Fill-144" fill="#242E6C"></path><path d="M180.934743,304.695098 L184.231801,284.011273 C184.231801,284.011273 191.678553,280.496255 196,285.166207 C193.021913,305.207895 191.42399,325.788249 184.231801,326.94927 C177.03808,328.108769 165.184005,309.100283 158.775443,299.813636 C152.366881,290.52699 157.677446,269.776211 168.347647,276.218889 C171.856331,278.338551 180.934743,304.695098 180.934743,304.695098 Z" id="Fill-145" fill="#333F84"></path><polygon id="Fill-146" fill="#37365B" points="197.351419 265.559803 199 265 198.228171 266.27228 191.451312 272 191 270.962477"></polygon><path d="M185.259466,276.158732 C186.341148,273.940425 187.655735,272.523292 187.655735,272.523292 C188.806194,269.114708 191.921501,269.482272 194.384984,271.712066 C196.850031,273.940425 200.29203,279.443838 195.862136,284.0829 C191.102424,287.814539 186.835095,284.948686 186.835095,284.948686 C186.835095,284.345651 184.176221,278.378476 185.259466,276.158732 Z" id="Fill-147" fill="#F5C3A9"></path><path d="M100.569996,291.33516 C97.9277004,291.102662 94.9406251,293.309889 93.7277932,296.406347 C91.5507981,301.963668 94.4646458,362.472185 99.7141484,361.185894 C101.383127,362.913026 137.89013,383 137.89013,383 L140,313.461781 C140,313.461781 114.217787,291.365355 100.583726,291 C100.583726,291 100.577624,291.122288 100.569996,291.33516 Z" id="Fill-148" fill="#5067A7"></path><path d="M132.719028,318.099079 C134.872185,312.534721 142.67757,309.829656 144.023482,318.97607 C145.369394,328.125509 152.367533,379.573144 138.639834,382.979801 C133.449321,384.266559 130.567379,323.66495 132.719028,318.099079 Z" id="Fill-149" fill="#637CC1"></path><path d="M295.512439,193 L264.39699,211.786126 L262,212.156655 L262,212.809039 C262,213.078227 262.102966,213.277742 262.339182,213.437671 L281.104755,224.767302 C281.675611,225.112495 282.670446,225.068158 283.327612,224.670711 L314.458202,205.876667 C314.859467,205.634398 315.039658,205.317707 314.992718,205.026351 L314.992718,203.951184 L313.925201,204.115864 L295.512439,193 Z" id="Fill-159" fill="#F0F0F6"></path><path d="M283.326786,222.692639 C282.669646,223.06376 281.67485,223.105326 281.104016,222.781708 L262,211.96873 L295.511142,193 L314.615158,203.812978 C315.184478,204.136595 315.114827,204.699215 314.454658,205.07182 L283.326786,222.692639 Z" id="Fill-160" fill="#504E7B"></path><path d="M283.326786,222.692639 C282.669646,223.06376 281.67485,223.105326 281.104016,222.781708 L262,211.96873 L295.511142,193 L314.615158,203.812978 C315.184478,204.136595 315.114827,204.699215 314.454658,205.07182 L283.326786,222.692639 Z" id="Fill-161" fill="#FFFFFF"></path><polygon id="Fill-162" fill="#E0E0F0" points="281.19052 221 272 216.175052 302.80948 200 312 204.826348"></polygon><path d="M283.629286,207.812634 C283.176804,208.039044 282.491378,208.063717 282.097552,207.867785 L278.264866,205.950555 C277.872716,205.754623 277.921316,205.412105 278.375473,205.184243 L286.369312,201.188683 C286.82347,200.960822 287.508895,200.936149 287.901046,201.132081 L291.733732,203.049311 C292.127558,203.246694 292.078958,203.589212 291.624801,203.815622 L283.629286,207.812634 Z" id="Fill-163" fill="#E0E0F0"></path><path d="M284.783239,204.228957 C282.754427,203.730578 280.586173,204.119423 278.581879,204.691738 C276.97446,205.150411 274.679022,205.355787 273.119106,205.991084 C272.392779,207.645046 271.983645,209.137446 272.000501,210.625738 C272.317694,210.722949 272.671664,210.798254 273.074668,210.83796 C274.738784,211.004999 276.50863,211.5513 278.185005,211.506117 C279.321997,211.474626 281.130152,211.789536 282.169075,211.521178 C281.744619,211.630712 281.243545,211.814181 281.179187,212.205765 C281.127088,212.532997 281.445813,212.835585 281.802847,212.919104 C284.286762,213.501003 286.476469,210.795515 288.004207,209.538614 C287.849441,209.664578 293.606423,212.454954 291.559224,209.626241 C289.979386,207.441039 287.700804,204.943666 284.783239,204.228957 Z" id="Fill-167" fill="#F5C3A9"></path><path d="M252.092247,202.386208 C255.734485,205.698488 270.311094,203.055341 275.283768,203.146784 C277.231194,207.296568 274.590227,212.318693 274.590227,212.318693 C246.819498,213.606157 243.480397,214.417535 236.422507,201.62418 C230.913985,191.635087 225.235522,166.533173 236.474561,169.196641 C244.879727,173.109834 245.666658,196.543996 252.092247,202.386208 Z" id="Fill-164" fill="#35A7B1"></path><path d="M278.864066,186.853338 C272.411917,181.274022 269.861782,158.987081 264.454266,156.197423 C260.936309,155.409041 259.077475,157.046449 258.355449,159.957397 C258.201826,160.563844 258.109653,161.215775 258.048204,161.913189 C257.771683,165.567035 258.708781,170.433775 260.245007,175.027614 C261.535437,178.9392 263.25601,182.65369 265.02267,185.276575 C266.466722,187.444625 267.787877,189.385256 269.293378,191.174276 C272.949596,195.525536 277.711897,199.073253 288.219683,203 C288.219683,203 293.519662,200.528727 291.568655,196.571658 C284.133321,192.902651 282.520284,190.006865 278.864066,186.853338 Z" id="Fill-165" fill="#35A7B1"></path><path d="M291.912482,205.525438 C293.153117,207.029185 295.134273,209.612221 295.74717,208.973168 C296.361551,208.332537 295.181761,205.776326 295.181761,205.776326 C295.181761,205.776326 298.860627,209.485988 299.519529,210.740425 C300.181398,211.994862 299.804459,208.38303 298.860627,206.727804 C301.218723,210.540031 301.779679,211.392101 301.971117,210.439045 C302.162554,209.485988 300.205142,204.321494 300.476717,204.823269 C303.199879,209.186185 304.237204,209.787368 303.955241,207.781847 C303.670311,205.776326 301.030253,202.364888 299.426036,201.413409 C304.143711,204.67179 304.473161,204.321494 303.293372,202.866663 C302.115066,201.413409 297.74465,197.85207 291.912482,197 C288.200968,200.709662 289.094343,201.889938 289.094343,201.889938 C289.238292,202.364888 290.670364,204.020114 291.912482,205.525438 Z" id="Fill-166" fill="#F5C3A9"></path><path d="M266.329354,132.28461 C267.287873,133.976093 267.398579,136.077078 267.280866,138.061935 C267.063658,141.6741 264.838324,146.097627 266.410632,149.587553 C267.079073,151.071229 268.446784,152.139293 268.86999,153.726874 C269.451548,155.905785 267.99415,158.159568 266.246675,159.392655 C264.067585,160.928284 261.255089,161.466136 258.797132,160.555455 C256.340576,159.644773 254.349267,157.207632 254.045175,154.397661 C253.676622,150.98719 255.632898,147.860925 257.373367,144.997475 C258.362715,143.370167 259.755651,141.186671 259.870561,139.169726 C259.978464,137.293356 259.059183,135.656881 259.406716,133.64452 C259.653353,132.211266 260.425493,130.800933 261.66288,130.243217 C263.296846,129.508255 265.248918,130.525895 266.239668,132.130283 L266.329354,132.28461 Z" id="Fill-168" fill="#131730"></path><path d="M242.003421,159.171706 C241.841807,161.082984 247.432689,169.229669 253.052374,167.841773 C256.324656,167.033335 258,162.480226 258,162.480226 C257.667171,159.6468 256.006228,153.654391 256.006228,153.654391 L245.00848,148 C245.00848,148 247.336681,155.877206 242.003421,159.171706 Z" id="Fill-169" fill="#F5C3A9"></path><path d="M263.885029,140.720079 C263.372173,144.4092 263.033268,151.754834 259.726697,154.105556 C256.421625,156.454796 251.681456,153.727603 248.542838,151.092304 C245.40422,148.458488 242.076654,143.599935 242.001675,137.723131 C241.928196,131.844844 244.252543,124.645945 252.827135,125.013523 C261.401726,125.381101 263.036267,132.286531 263.036267,132.286531 C263.036267,132.286531 264.396385,137.030957 263.885029,140.720079 Z" id="Fill-170" fill="#F5C3A9"></path><path d="M255.302506,136.757283 C254.026971,137.706054 252.522569,138.298479 251.254323,139.256159 C249.986076,140.212354 248.926289,141.723854 249.152241,143.315533 C249.3607,144.764673 250.59396,146.06979 250.254303,147.493689 C249.972956,148.663692 248.703252,149.397171 248.475843,150.579051 C248.245518,151.774295 249.150783,152.841848 249.719307,153.913856 C250.655185,155.682222 250.700376,157.909385 249.838843,159.716356 C247.88691,163.802456 242.924714,163.533712 239.40278,161.824736 C235.662182,160.011826 233.135894,155.771309 234.275858,151.547125 C234.870621,149.33778 236.306509,147.458055 237.036844,145.293253 C237.966892,142.536026 237.695749,139.535296 237.880884,136.626622 C238.233661,131.101775 242.294964,124.923627 247.990411,124.07879 C251.720804,123.524969 254.576545,125.974848 256.833148,128.788496 C258.990625,131.477423 257.968739,134.773623 255.302506,136.757283 Z" id="Fill-171" fill="#131730"></path><path d="M261.330888,125.615554 C259.691214,124.52791 253.029668,122.488942 253.000284,125.843234 C252.969429,129.194626 257.958977,132.551818 260.591859,134.042615 C261.739338,134.693751 262.967624,135.22162 264.010786,136.025026 C265.383059,137.080765 265.499129,139.08783 266.712723,140 C268.558092,138.248169 268.086465,133.92805 267.345967,131.771615 C266.364513,128.917639 263.818316,127.287624 261.383781,125.651809 L261.330888,125.615554 Z" id="Fill-172" fill="#131730"></path><path d="M284,223 L294.884787,199.923556 C295.241935,199.186125 295.987612,198.32176 296.550979,197.993845 L325.441094,181.126628 C326.002966,180.798713 326.168838,181.12965 325.81169,181.86557 L314.720684,205.062904 L284,223 Z" id="Fill-173" fill="#FFFFFF"></path><path d="M237.262541,240.985241 C237.635546,241.118262 238.268096,240.337275 238.675384,239.240856 C239.082671,238.144438 239.110463,237.14778 238.737459,237.014759 C238.364454,236.881738 237.731904,237.662725 237.324616,238.759144 C236.917329,239.855562 236.889537,240.85222 237.262541,240.985241 Z" id="Oval" fill="#DBDEE8"></path><path d="M161,270.153179 C161,270.153179 156.137255,267.099852 151.055556,267.005224 C145.973856,266.91375 143.575163,268.046131 143.383987,268.635978 C143.191176,269.227402 143,270.902316 143,270.902316 L161,272 L161,270.153179 Z" id="Fill-174" fill="#18215B"></path><path d="M256.064099,159.569811 C256.32648,160.233962 257.89628,161 257.89628,161 L261,161 L256.429638,155 C256.429638,155 255.801718,158.90566 256.064099,159.569811 Z" id="Fill-175" fill="#5B619D"></path><path d="M269.424376,168 C269.459083,168.478611 269.489625,168.967563 269.507673,169.491968 C269.690926,174.902936 268.845463,182.783775 268,189.2081 C268.644162,190.183049 269.293877,191.112205 269.986629,192 C270.625238,186.578691 271.125019,180.75854 270.972308,176.474672 C270.837645,172.394657 270.168494,169.737182 269.424376,168 Z" id="Fill-176" fill="#2A99A3"></path></g></g></g></svg>